<svg width="18" height="18" viewBox="0 0 18 18" fill="none" xmlns="http://www.w3.org/2000/svg">
<g clip-path="url(#clip0_8296_5391)">
<path d="M9.39551 6.63184L9.39551 8.60449L11.3682 8.60449C11.7171 8.60449 12 8.88735 12 9.23633C12 9.58531 11.7171 9.86816 11.3682 9.86816L9.39551 9.86816L9.39551 11.8408C9.39551 12.1898 9.11265 12.4727 8.76367 12.4727C8.41469 12.4727 8.13551 12.1898 8.13551 11.8408L8.13551 9.86816L6.16286 9.86816C5.81388 9.86816 5.53102 9.58531 5.53102 9.23633C5.53102 8.88735 5.81388 8.60449 6.16286 8.60449L8.13551 8.60449L8.13551 6.63184C8.13551 6.28286 8.41837 6 8.76367 6C9.10898 6 9.39551 6.28286 9.39551 6.63184Z" fill="#1D86FF"/>
<path fill-rule="evenodd" clip-rule="evenodd" d="M9 0.750001C13.5563 0.75 17.25 4.44365 17.25 9C17.25 13.5564 13.5563 17.25 9 17.25C4.44362 17.25 0.749997 13.5564 0.749997 9C0.749997 4.44365 4.44362 0.750001 9 0.750001ZM16.0988 9C16.0988 5.07942 12.9206 1.90116 9 1.90116C5.07944 1.90116 1.90116 5.07943 1.90116 9C1.90116 12.9206 5.07944 16.0988 9 16.0988C12.9206 16.0988 16.0988 12.9206 16.0988 9Z" fill="#1D86FF"/>
</g>
<defs>
<clipPath id="clip0_8296_5391">
<rect width="18" height="18" fill="white" transform="matrix(-1 8.74228e-08 8.74228e-08 1 18 0)"/>
</clipPath>
</defs>
</svg>
