<svg width="24" height="24" viewBox="0 0 24 24" fill="none" xmlns="http://www.w3.org/2000/svg">
<path d="M12.3033 2.30551C12.6947 2.71286 12.6947 3.37358 12.3033 3.78093C11.9119 4.18828 11.277 4.18828 10.8856 3.78093C10.4942 3.37358 10.4942 2.71286 10.8856 2.30551C11.277 1.89816 11.9119 1.89816 12.3033 2.30551Z" stroke="#B5BEC8" stroke-width="0.9" stroke-miterlimit="10" stroke-linecap="round"/>
<path d="M11.594 5.62338V4.19165" stroke="#B5BEC8" stroke-width="0.9" stroke-miterlimit="10" stroke-linecap="round"/>
<path d="M10.9139 21.6946C10.5225 21.2873 10.5225 20.6266 10.9139 20.2192C11.3053 19.8119 11.9402 19.8119 12.3316 20.2192C12.723 20.6266 12.723 21.2873 12.3316 21.6946C11.9402 22.102 11.3053 22.102 10.9139 21.6946Z" stroke="#B5BEC8" stroke-width="0.9" stroke-miterlimit="10" stroke-linecap="round"/>
<path d="M11.6233 17.7859V19.8084" stroke="#B5BEC8" stroke-width="0.9" stroke-miterlimit="10" stroke-linecap="round"/>
<path d="M2.29356 11.2771C2.68497 10.8697 3.31983 10.8697 3.71124 11.2771C4.10265 11.6844 4.10265 12.3451 3.71124 12.7525C3.31983 13.1598 2.68497 13.1598 2.29356 12.7525C1.90215 12.3451 1.90215 11.6844 2.29356 11.2771Z" stroke="#B5BEC8" stroke-width="0.9" stroke-miterlimit="10" stroke-linecap="round"/>
<path d="M5.62308 12.0155H4.10571" stroke="#B5BEC8" stroke-width="0.9" stroke-miterlimit="10" stroke-linecap="round"/>
<path d="M20.2146 13.0288C20.7687 13.0288 21.2178 12.5613 21.2178 11.9847C21.2178 11.4081 20.7687 10.9407 20.2146 10.9407C19.6606 10.9407 19.2114 11.4081 19.2114 11.9847C19.2114 12.5613 19.6606 13.0288 20.2146 13.0288Z" stroke="#B5BEC8" stroke-width="0.9" stroke-miterlimit="10" stroke-linecap="round"/>
<path d="M17.5942 11.9846H19.1116" stroke="#B5BEC8" stroke-width="0.9" stroke-miterlimit="10" stroke-linecap="round"/>
<path d="M18.6865 5.6561C18.6865 6.23272 18.2374 6.70014 17.6834 6.70014C17.1293 6.70014 16.6802 6.23272 16.6802 5.6561C16.6802 5.07948 17.1293 4.61206 17.6834 4.61206C18.2374 4.61206 18.6865 5.07948 18.6865 5.6561Z" stroke="#B5BEC8" stroke-width="0.9" stroke-miterlimit="10" stroke-linecap="round"/>
<path d="M15.8313 7.58487L16.9037 6.46875" stroke="#B5BEC8" stroke-width="0.9" stroke-miterlimit="10" stroke-linecap="round"/>
<path d="M4.53076 5.6561C4.53076 6.23272 4.97989 6.70014 5.53395 6.70014C6.08801 6.70014 6.53713 6.23272 6.53713 5.6561C6.53713 5.07948 6.08801 4.61206 5.53395 4.61206C4.97989 4.61206 4.53076 5.07948 4.53076 5.6561Z" stroke="#B5BEC8" stroke-width="0.9" stroke-miterlimit="10" stroke-linecap="round"/>
<path d="M7.38721 7.58487L6.31372 6.46875" stroke="#B5BEC8" stroke-width="0.9" stroke-miterlimit="10" stroke-linecap="round"/>
<path d="M18.6865 18.3437C18.6865 17.7671 18.2374 17.2997 17.6834 17.2997C17.1293 17.2997 16.6802 17.7671 16.6802 18.3437C16.6802 18.9203 17.1293 19.3878 17.6834 19.3878C18.2374 19.3878 18.6865 18.9203 18.6865 18.3437Z" stroke="#B5BEC8" stroke-width="0.9" stroke-miterlimit="10" stroke-linecap="round"/>
<path d="M15.8313 16.415L16.9037 17.5322" stroke="#B5BEC8" stroke-width="0.9" stroke-miterlimit="10" stroke-linecap="round"/>
<path d="M4.53076 18.3437C4.53076 17.7671 4.97989 17.2997 5.53395 17.2997C6.08801 17.2997 6.53713 17.7671 6.53713 18.3437C6.53713 18.9203 6.08801 19.3878 5.53395 19.3878C4.97989 19.3878 4.53076 18.9203 4.53076 18.3437Z" stroke="#B5BEC8" stroke-width="0.9" stroke-miterlimit="10" stroke-linecap="round"/>
<path d="M7.38721 16.415L6.31372 17.5322" stroke="#B5BEC8" stroke-width="0.9" stroke-miterlimit="10" stroke-linecap="round"/>
<path d="M14.9162 11.6278L14.7252 10.7738C14.7179 10.7422 14.7263 10.7083 14.7473 10.6843L15.4283 9.90233C15.5332 9.7822 15.5469 9.60528 15.465 9.46768C15.3706 9.31151 15.2678 9.15862 15.1534 9.01119C15.039 8.86375 14.9183 8.72397 14.7914 8.59401C14.6812 8.48043 14.5122 8.4564 14.3769 8.53613L13.4891 9.05705C13.4618 9.07344 13.4293 9.07453 13.401 9.06033L12.6402 8.68138C12.6118 8.66718 12.5919 8.63988 12.5877 8.60711L12.4282 7.56526C12.4041 7.40581 12.2802 7.28241 12.1249 7.26384C11.9486 7.242 11.7703 7.23108 11.5877 7.23108C11.4051 7.23108 11.2256 7.242 11.0493 7.26384C10.8951 7.28241 10.7713 7.40472 10.7471 7.56417L10.5824 8.61039C10.5771 8.64206 10.5582 8.66936 10.531 8.68356L9.71561 9.10292C9.68833 9.11712 9.65475 9.11603 9.62746 9.10074L8.73551 8.59619C8.59909 8.51865 8.43015 8.54596 8.32102 8.66172C8.19719 8.79386 8.07966 8.93474 7.96843 9.08436C7.8572 9.23507 7.75646 9.38905 7.66517 9.5485C7.58542 9.68719 7.60325 9.86302 7.70924 9.98096L8.40496 10.7542C8.42595 10.7782 8.4354 10.811 8.4291 10.8426L8.25595 11.701C8.24966 11.7327 8.22867 11.76 8.19929 11.772L7.26326 12.1804C7.1195 12.2427 7.0345 12.3978 7.05339 12.5583C7.07438 12.7418 7.10691 12.9252 7.14993 13.1087C7.19296 13.2933 7.24542 13.4724 7.30734 13.646C7.36085 13.7967 7.50462 13.8939 7.65887 13.8808L8.67465 13.8C8.70613 13.7978 8.73551 13.8109 8.75545 13.836L9.29062 14.5142C9.31056 14.5394 9.31685 14.5732 9.30846 14.6049L9.02828 15.6194C8.98526 15.7745 9.04717 15.9405 9.17939 16.0268C9.3305 16.124 9.4879 16.2135 9.65265 16.2932C9.8174 16.3741 9.9853 16.4429 10.1542 16.5007C10.3012 16.5521 10.4628 16.4953 10.5509 16.362L11.127 15.4862C11.1448 15.46 11.1732 15.4436 11.2046 15.4425L12.0473 15.4338C12.0788 15.4338 12.1081 15.4491 12.126 15.4753L12.7115 16.3369C12.8018 16.4691 12.9644 16.5226 13.1113 16.468C13.2782 16.4068 13.444 16.3337 13.6066 16.2507C13.7703 16.1666 13.9267 16.0748 14.0757 15.9733C14.2058 15.8859 14.2646 15.7188 14.2205 15.5648L13.9246 14.5492C13.9151 14.5186 13.9214 14.4847 13.9403 14.4596L14.4608 13.7705C14.4797 13.7454 14.5101 13.7312 14.5416 13.7323L15.5542 13.7967C15.7095 13.8066 15.8512 13.7072 15.9026 13.5543C15.9614 13.3795 16.0107 13.2004 16.0495 13.0159C16.0894 12.8302 16.1177 12.6457 16.1356 12.4622C16.1513 12.3017 16.0632 12.1499 15.9194 12.0898L14.9729 11.6955C14.9435 11.6835 14.9225 11.6573 14.9152 11.6257L14.9162 11.6278Z" stroke="#B5BEC8" stroke-width="0.9" stroke-miterlimit="10" stroke-linecap="round"/>
<path d="M13.0956 12.0098C13.0956 12.8736 12.423 13.5748 11.5919 13.5748C10.7608 13.5748 10.0881 12.8747 10.0881 12.0098C10.0881 11.1449 10.7608 10.4448 11.5919 10.4448C12.423 10.4448 13.0956 11.1449 13.0956 12.0098Z" stroke="#B5BEC8" stroke-width="0.9" stroke-miterlimit="10" stroke-linecap="round"/>
</svg>
