<svg width="21" height="21" viewBox="0 0 21 21" fill="none" xmlns="http://www.w3.org/2000/svg">
<g clip-path="url(#clip0_8889_1229)">
<mask id="path-1-inside-1_8889_1229" fill="white">
<path d="M10.5003 8.52224C5.76227 8.52224 2.05151 6.82716 2.05151 4.66434C2.05151 2.50152 5.76227 0.807739 10.5003 0.807739C15.2382 0.807739 18.949 2.50282 18.949 4.66564C18.949 6.82846 15.2382 8.52354 10.5003 8.52354V8.52224ZM10.5003 1.62336C5.92306 1.62336 2.84905 3.19596 2.84905 4.66564C2.84905 6.13532 5.92306 7.70792 10.5003 7.70792C15.0775 7.70792 18.1515 6.13532 18.1515 4.66564C18.1515 3.19596 15.0762 1.62336 10.5003 1.62336Z"/>
</mask>
<path d="M10.5003 8.52224H11.5003V7.52224H10.5003V8.52224ZM10.5003 8.52354H9.50026V9.52354H10.5003V8.52354ZM10.5003 8.52224V7.52224C8.23638 7.52224 6.2733 7.11522 4.91455 6.49471C3.47856 5.83893 3.05151 5.12425 3.05151 4.66434H2.05151H1.05151C1.05151 6.36725 2.47985 7.58152 4.08373 8.31398C5.76486 9.08172 8.02615 9.52224 10.5003 9.52224V8.52224ZM2.05151 4.66434H3.05151C3.05151 4.20456 3.47838 3.49018 4.91439 2.83469C6.27315 2.21446 8.23628 1.80774 10.5003 1.80774V0.807739V-0.192261C8.02626 -0.192261 5.76501 0.247904 4.08389 1.01527C2.48003 1.74738 1.05151 2.9613 1.05151 4.66434H2.05151ZM10.5003 0.807739V1.80774C12.7641 1.80774 14.7272 2.21475 16.086 2.83527C17.522 3.49105 17.949 4.20573 17.949 4.66564H18.949H19.949C19.949 2.96273 18.5207 1.74846 16.9168 1.016C15.2357 0.248263 12.9744 -0.192261 10.5003 -0.192261V0.807739ZM18.949 4.66564H17.949C17.949 5.12555 17.522 5.84023 16.086 6.49602C14.7272 7.11653 12.7641 7.52354 10.5003 7.52354V8.52354V9.52354C12.9744 9.52354 15.2357 9.08302 16.9168 8.31528C18.5207 7.58283 19.949 6.36855 19.949 4.66564H18.949ZM10.5003 8.52354H11.5003V8.52224H10.5003H9.50026V8.52354H10.5003ZM10.5003 1.62336V0.623358C8.10776 0.623358 6.05484 1.03286 4.56295 1.6748C3.81967 1.99462 3.17454 2.38983 2.69934 2.85763C2.22929 3.32036 1.84905 3.93512 1.84905 4.66564H2.84905H3.84905C3.84905 4.66133 3.85305 4.52838 4.10242 4.2829C4.34663 4.04249 4.75608 3.76898 5.35345 3.51195C6.54287 3.00016 8.31556 2.62336 10.5003 2.62336V1.62336ZM2.84905 4.66564H1.84905C1.84905 5.39616 2.22929 6.01092 2.69934 6.47365C3.17454 6.94145 3.81967 7.33666 4.56295 7.65649C6.05484 8.29842 8.10776 8.70792 10.5003 8.70792V7.70792V6.70792C8.31556 6.70792 6.54287 6.33113 5.35345 5.81934C4.75608 5.5623 4.34663 5.2888 4.10242 5.04838C3.85305 4.8029 3.84905 4.66996 3.84905 4.66564H2.84905ZM10.5003 7.70792V8.70792C12.8928 8.70792 14.9457 8.29842 16.4376 7.65649C17.1808 7.33666 17.826 6.94145 18.3012 6.47365C18.7712 6.01092 19.1515 5.39616 19.1515 4.66564H18.1515H17.1515C17.1515 4.66996 17.1475 4.8029 16.8981 5.04838C16.6539 5.2888 16.2444 5.5623 15.6471 5.81934C14.4576 6.33113 12.685 6.70792 10.5003 6.70792V7.70792ZM18.1515 4.66564H19.1515C19.1515 3.93498 18.771 3.32019 18.3009 2.85753C17.8256 2.38978 17.1804 1.99459 16.437 1.67478C14.945 1.03287 12.8922 0.623358 10.5003 0.623358V1.62336V2.62336C12.6843 2.62336 14.457 3.00015 15.6466 3.51196C16.2441 3.76902 16.6537 4.04254 16.898 4.283C17.1475 4.52854 17.1515 4.66146 17.1515 4.66564H18.1515Z" fill="#B5BEC8" mask="url(#path-1-inside-1_8889_1229)"/>
<mask id="path-3-inside-2_8889_1229" fill="white">
<path d="M10.5005 11.7417C5.76252 11.7417 2.05176 10.0466 2.05176 7.88376C2.05176 7.65836 2.23041 7.47595 2.45116 7.47595C2.67192 7.47595 2.85057 7.65836 2.85057 7.88376C2.85057 9.35344 5.92458 10.926 10.5018 10.926C15.079 10.926 18.153 9.35344 18.153 7.88376C18.153 7.65836 18.3316 7.47595 18.5524 7.47595C18.7732 7.47595 18.9518 7.65836 18.9518 7.88376C18.9518 10.0466 15.241 11.7417 10.5031 11.7417H10.5005Z"/>
</mask>
<path d="M10.5005 11.7417V10.7417C8.23662 10.7417 6.27355 10.3346 4.9148 9.71414C3.4788 9.05835 3.05176 8.34367 3.05176 7.88376H2.05176H1.05176C1.05176 9.58667 2.48009 10.8009 4.08398 11.5334C5.7651 12.3011 8.0264 12.7417 10.5005 12.7417V11.7417ZM2.05176 7.88376H3.05176C3.05176 8.19091 2.80222 8.47595 2.45116 8.47595V7.47595V6.47595C1.65859 6.47595 1.05176 7.12581 1.05176 7.88376H2.05176ZM2.45116 7.47595V8.47595C2.1001 8.47595 1.85057 8.19091 1.85057 7.88376H2.85057H3.85057C3.85057 7.12581 3.24373 6.47595 2.45116 6.47595V7.47595ZM2.85057 7.88376H1.85057C1.85057 8.61428 2.23081 9.22904 2.70086 9.69177C3.17606 10.1596 3.82119 10.5548 4.56447 10.8746C6.05636 11.5165 8.10928 11.926 10.5018 11.926V10.926V9.92604C8.31708 9.92604 6.54439 9.54925 5.35497 9.03746C4.7576 8.78042 4.34815 8.50692 4.10394 8.2665C3.85457 8.02102 3.85057 7.88808 3.85057 7.88376H2.85057ZM10.5018 10.926V11.926C12.8943 11.926 14.9472 11.5165 16.4391 10.8746C17.1824 10.5548 17.8275 10.1596 18.3027 9.69177C18.7727 9.22904 19.153 8.61428 19.153 7.88376H18.153H17.153C17.153 7.88808 17.149 8.02102 16.8996 8.2665C16.6554 8.50692 16.246 8.78042 15.6486 9.03746C14.4592 9.54925 12.6865 9.92604 10.5018 9.92604V10.926ZM18.153 7.88376H19.153C19.153 8.19091 18.9035 8.47595 18.5524 8.47595V7.47595V6.47595C17.7598 6.47595 17.153 7.12581 17.153 7.88376H18.153ZM18.5524 7.47595V8.47595C18.2013 8.47595 17.9518 8.19091 17.9518 7.88376H18.9518H19.9518C19.9518 7.12581 19.345 6.47595 18.5524 6.47595V7.47595ZM18.9518 7.88376H17.9518C17.9518 8.34367 17.5248 9.05835 16.0888 9.71414C14.73 10.3346 12.7669 10.7417 10.5031 10.7417V11.7417V12.7417C12.9772 12.7417 15.2385 12.3011 16.9196 11.5334C18.5235 10.8009 19.9518 9.58667 19.9518 7.88376H18.9518ZM10.5031 11.7417V10.7417H10.5005V11.7417V12.7417H10.5031V11.7417Z" fill="#B5BEC8" mask="url(#path-3-inside-2_8889_1229)"/>
<mask id="path-5-inside-3_8889_1229" fill="white">
<path d="M10.5005 14.7293C5.76252 14.7293 2.05176 13.0343 2.05176 10.8714C2.05176 10.646 2.23041 10.4636 2.45116 10.4636C2.67192 10.4636 2.85057 10.646 2.85057 10.8714C2.85057 12.3411 5.92458 13.9137 10.5018 13.9137C15.079 13.9137 18.153 12.3411 18.153 10.8714C18.153 10.646 18.3316 10.4636 18.5524 10.4636C18.7732 10.4636 18.9518 10.646 18.9518 10.8714C18.9518 13.0343 15.241 14.7293 10.5031 14.7293H10.5005Z"/>
</mask>
<path d="M10.5005 14.7293V13.7293C8.23662 13.7293 6.27355 13.3223 4.9148 12.7018C3.4788 12.046 3.05176 11.3313 3.05176 10.8714H2.05176H1.05176C1.05176 12.5743 2.48009 13.7886 4.08398 14.5211C5.7651 15.2888 8.0264 15.7293 10.5005 15.7293V14.7293ZM2.05176 10.8714H3.05176C3.05176 11.1786 2.80222 11.4636 2.45116 11.4636V10.4636V9.46362C1.65859 9.46362 1.05176 10.1135 1.05176 10.8714H2.05176ZM2.45116 10.4636V11.4636C2.10011 11.4636 1.85057 11.1786 1.85057 10.8714H2.85057H3.85057C3.85057 10.1135 3.24373 9.46362 2.45116 9.46362V10.4636ZM2.85057 10.8714H1.85057C1.85057 11.602 2.23081 12.2167 2.70086 12.6794C3.17606 13.1472 3.82119 13.5425 4.56447 13.8623C6.05636 14.5042 8.10928 14.9137 10.5018 14.9137V13.9137V12.9137C8.31708 12.9137 6.54439 12.5369 5.35497 12.0251C4.7576 11.7681 4.34815 11.4946 4.10394 11.2542C3.85457 11.0087 3.85057 10.8757 3.85057 10.8714H2.85057ZM10.5018 13.9137V14.9137C12.8943 14.9137 14.9472 14.5042 16.4391 13.8623C17.1824 13.5425 17.8275 13.1472 18.3027 12.6794C18.7727 12.2167 19.153 11.602 19.153 10.8714H18.153H17.153C17.153 10.8757 17.149 11.0087 16.8996 11.2542C16.6554 11.4946 16.246 11.7681 15.6486 12.0251C14.4592 12.5369 12.6865 12.9137 10.5018 12.9137V13.9137ZM18.153 10.8714H19.153C19.153 11.1786 18.9034 11.4636 18.5524 11.4636V10.4636V9.46362C17.7598 9.46362 17.153 10.1135 17.153 10.8714H18.153ZM18.5524 10.4636V11.4636C18.2013 11.4636 17.9518 11.1786 17.9518 10.8714H18.9518H19.9518C19.9518 10.1135 19.345 9.46362 18.5524 9.46362V10.4636ZM18.9518 10.8714H17.9518C17.9518 11.3313 17.5248 12.046 16.0888 12.7018C14.73 13.3223 12.7669 13.7293 10.5031 13.7293V14.7293V15.7293C12.9772 15.7293 15.2385 15.2888 16.9196 14.5211C18.5235 13.7886 19.9518 12.5743 19.9518 10.8714H18.9518ZM10.5031 14.7293V13.7293H10.5005V14.7293V15.7293H10.5031V14.7293Z" fill="#B5BEC8" mask="url(#path-5-inside-3_8889_1229)"/>
<mask id="path-7-inside-4_8889_1229" fill="white">
<path d="M10.5005 17.6361C5.76252 17.6361 2.05176 15.941 2.05176 13.7782C2.05176 13.5528 2.23041 13.3704 2.45116 13.3704C2.67192 13.3704 2.85057 13.5528 2.85057 13.7782C2.85057 15.2478 5.92458 16.8205 10.5018 16.8205C15.079 16.8205 18.153 15.2478 18.153 13.7782C18.153 13.5528 18.3316 13.3704 18.5524 13.3704C18.7732 13.3704 18.9518 13.5528 18.9518 13.7782C18.9518 15.941 15.241 17.6361 10.5031 17.6361H10.5005Z"/>
</mask>
<path d="M10.5005 17.6361V16.6361C8.23662 16.6361 6.27355 16.2291 4.9148 15.6085C3.4788 14.9528 3.05176 14.2381 3.05176 13.7782H2.05176H1.05176C1.05176 15.4811 2.48009 16.6954 4.08398 17.4278C5.7651 18.1955 8.0264 18.6361 10.5005 18.6361V17.6361ZM2.05176 13.7782H3.05176C3.05176 14.0853 2.80222 14.3704 2.45116 14.3704V13.3704V12.3704C1.65859 12.3704 1.05176 13.0202 1.05176 13.7782H2.05176ZM2.45116 13.3704V14.3704C2.1001 14.3704 1.85057 14.0853 1.85057 13.7782H2.85057H3.85057C3.85057 13.0202 3.24374 12.3704 2.45116 12.3704V13.3704ZM2.85057 13.7782H1.85057C1.85057 14.5087 2.23081 15.1235 2.70086 15.5862C3.17606 16.054 3.82119 16.4492 4.56447 16.769C6.05636 17.411 8.10928 17.8205 10.5018 17.8205V16.8205V15.8205C8.31708 15.8205 6.54439 15.4437 5.35497 14.9319C4.7576 14.6748 4.34815 14.4013 4.10394 14.1609C3.85457 13.9154 3.85057 13.7825 3.85057 13.7782H2.85057ZM10.5018 16.8205V17.8205C12.8943 17.8205 14.9472 17.411 16.4391 16.769C17.1824 16.4492 17.8275 16.054 18.3027 15.5862C18.7727 15.1235 19.153 14.5087 19.153 13.7782H18.153H17.153C17.153 13.7825 17.149 13.9154 16.8996 14.1609C16.6554 14.4013 16.246 14.6748 15.6486 14.9319C14.4592 15.4437 12.6865 15.8205 10.5018 15.8205V16.8205ZM18.153 13.7782H19.153C19.153 14.0853 18.9035 14.3704 18.5524 14.3704V13.3704V12.3704C17.7598 12.3704 17.153 13.0202 17.153 13.7782H18.153ZM18.5524 13.3704V14.3704C18.2013 14.3704 17.9518 14.0853 17.9518 13.7782H18.9518H19.9518C19.9518 13.0202 19.345 12.3704 18.5524 12.3704V13.3704ZM18.9518 13.7782H17.9518C17.9518 14.2381 17.5248 14.9528 16.0888 15.6085C14.73 16.2291 12.7669 16.6361 10.5031 16.6361V17.6361V18.6361C12.9772 18.6361 15.2385 18.1955 16.9196 17.4278C18.5235 16.6954 19.9518 15.4811 19.9518 13.7782H18.9518ZM10.5031 17.6361V16.6361H10.5005V17.6361V18.6361H10.5031V17.6361Z" fill="#B5BEC8" mask="url(#path-7-inside-4_8889_1229)"/>
<mask id="path-9-inside-5_8889_1229" fill="white">
<path d="M2.44994 14.6003C2.22918 14.6003 2.05054 14.4179 2.05054 14.1925V4.66562C2.05054 4.44022 2.22918 4.25781 2.44994 4.25781C2.6707 4.25781 2.84935 4.44022 2.84935 4.66562V14.1925C2.84935 14.4179 2.6707 14.6003 2.44994 14.6003Z"/>
</mask>
<path d="M2.44994 14.6003V13.6003C2.801 13.6003 3.05054 13.8853 3.05054 14.1925H2.05054H1.05054C1.05054 14.9504 1.65737 15.6003 2.44994 15.6003V14.6003ZM2.05054 14.1925H3.05054V4.66562H2.05054H1.05054V14.1925H2.05054ZM2.05054 4.66562H3.05054C3.05054 4.97277 2.801 5.25781 2.44994 5.25781V4.25781V3.25781C1.65737 3.25781 1.05054 3.90767 1.05054 4.66562H2.05054ZM2.44994 4.25781V5.25781C2.09888 5.25781 1.84935 4.97277 1.84935 4.66562H2.84935H3.84935C3.84935 3.90767 3.24251 3.25781 2.44994 3.25781V4.25781ZM2.84935 4.66562H1.84935V14.1925H2.84935H3.84935V4.66562H2.84935ZM2.84935 14.1925H1.84935C1.84935 13.8853 2.09888 13.6003 2.44994 13.6003V14.6003V15.6003C3.24252 15.6003 3.84935 14.9504 3.84935 14.1925H2.84935Z" fill="#B5BEC8" mask="url(#path-9-inside-5_8889_1229)"/>
<mask id="path-11-inside-6_8889_1229" fill="white">
<path d="M18.5498 14.1859C18.329 14.1859 18.1504 14.0035 18.1504 13.7781V4.66562C18.1504 4.44022 18.329 4.25781 18.5498 4.25781C18.7706 4.25781 18.9492 4.44022 18.9492 4.66562V13.7781C18.9492 14.0035 18.7706 14.1859 18.5498 14.1859Z"/>
</mask>
<path d="M18.5498 14.1859V13.1859C18.9009 13.1859 19.1504 13.471 19.1504 13.7781H18.1504H17.1504C17.1504 14.5361 17.7572 15.1859 18.5498 15.1859V14.1859ZM18.1504 13.7781H19.1504V4.66562H18.1504H17.1504V13.7781H18.1504ZM18.1504 4.66562H19.1504C19.1504 4.97276 18.9009 5.25781 18.5498 5.25781V4.25781V3.25781C17.7572 3.25781 17.1504 3.90768 17.1504 4.66562H18.1504ZM18.5498 4.25781V5.25781C18.1987 5.25781 17.9492 4.97277 17.9492 4.66562H18.9492H19.9492C19.9492 3.90767 19.3424 3.25781 18.5498 3.25781V4.25781ZM18.9492 4.66562H17.9492V13.7781H18.9492H19.9492V4.66562H18.9492ZM18.9492 13.7781H17.9492C17.9492 13.471 18.1987 13.1859 18.5498 13.1859V14.1859V15.1859C19.3424 15.1859 19.9492 14.5361 19.9492 13.7781H18.9492Z" fill="#B5BEC8" mask="url(#path-11-inside-6_8889_1229)"/>
<mask id="path-13-inside-7_8889_1229" fill="white">
<path d="M20.6019 20.1923H0.399405C0.178647 20.1923 0 20.0099 0 19.7845C0 19.5591 0.178647 19.3767 0.399405 19.3767H20.6019C20.8226 19.3767 21.0013 19.5591 21.0013 19.7845C21.0013 20.0099 20.8226 20.1923 20.6019 20.1923Z"/>
</mask>
<path d="M20.6019 20.1923V19.1923H0.399405V20.1923V21.1923H20.6019V20.1923ZM0.399405 20.1923V19.1923C0.750465 19.1923 1 19.4774 1 19.7845H0H-1C-1 20.5425 -0.39317 21.1923 0.399405 21.1923V20.1923ZM0 19.7845H1C1 20.0917 0.750459 20.3767 0.399405 20.3767V19.3767V18.3767C-0.393164 18.3767 -1 19.0266 -1 19.7845H0ZM0.399405 19.3767V20.3767H20.6019V19.3767V18.3767H0.399405V19.3767ZM20.6019 19.3767V20.3767C20.2508 20.3767 20.0013 20.0917 20.0013 19.7845H21.0013H22.0013C22.0013 19.0266 21.3944 18.3767 20.6019 18.3767V19.3767ZM21.0013 19.7845H20.0013C20.0013 19.4774 20.2508 19.1923 20.6019 19.1923V20.1923V21.1923C21.3944 21.1923 22.0013 20.5425 22.0013 19.7845H21.0013Z" fill="#B5BEC8" mask="url(#path-13-inside-7_8889_1229)"/>
<mask id="path-15-inside-8_8889_1229" fill="white">
<path d="M10.5007 20.1924C10.28 20.1924 10.1013 20.0099 10.1013 19.7845V17.2282C10.1013 17.0028 10.28 16.8204 10.5007 16.8204C10.7215 16.8204 10.9001 17.0028 10.9001 17.2282V19.7845C10.9001 20.0099 10.7215 20.1924 10.5007 20.1924Z"/>
</mask>
<path d="M10.5007 20.1924V19.1924C10.8518 19.1924 11.1013 19.4774 11.1013 19.7845H10.1013H9.10132C9.10132 20.5425 9.70815 21.1924 10.5007 21.1924V20.1924ZM10.1013 19.7845H11.1013V17.2282H10.1013H9.10132V19.7845H10.1013ZM10.1013 17.2282H11.1013C11.1013 17.5354 10.8518 17.8204 10.5007 17.8204V16.8204V15.8204C9.70815 15.8204 9.10132 16.4703 9.10132 17.2282H10.1013ZM10.5007 16.8204V17.8204C10.1497 17.8204 9.90013 17.5354 9.90013 17.2282H10.9001H11.9001C11.9001 16.4703 11.2933 15.8204 10.5007 15.8204V16.8204ZM10.9001 17.2282H9.90013V19.7845H10.9001H11.9001V17.2282H10.9001ZM10.9001 19.7845H9.90013C9.90013 19.4774 10.1497 19.1924 10.5007 19.1924V20.1924V21.1924C11.2933 21.1924 11.9001 20.5425 11.9001 19.7845H10.9001Z" fill="#B5BEC8" mask="url(#path-15-inside-8_8889_1229)"/>
</g>
<defs>
<clipPath id="clip0_8889_1229">
<rect width="21" height="19.3846" fill="white" transform="translate(0 0.807739)"/>
</clipPath>
</defs>
</svg>
