<svg width="24" height="24" viewBox="0 0 24 24" fill="none" xmlns="http://www.w3.org/2000/svg">
<path d="M15.8763 9.63684H7.65442C7.5775 9.63684 7.51514 9.69944 7.51514 9.77666V17.7441C7.51514 17.8213 7.5775 17.8839 7.65442 17.8839H15.8763C15.9533 17.8839 16.0156 17.8213 16.0156 17.7441V9.77666C16.0156 9.69944 15.9533 9.63684 15.8763 9.63684Z" stroke="#B5BEC8" stroke-miterlimit="10" stroke-linecap="round"/>
<path d="M9.03003 12.3855H14.4663" stroke="#B5BEC8" stroke-miterlimit="10" stroke-linecap="round"/>
<path d="M9.03003 15.1354H14.4663" stroke="#B5BEC8" stroke-miterlimit="10" stroke-linecap="round"/>
<path d="M17.5402 15.1298H17.9991C19.936 15.1298 21.5685 13.5387 21.5318 11.5943C21.4962 9.70947 19.963 8.19315 18.0768 8.19315C17.9926 8.19315 17.9008 8.13896 17.9008 8.01649C17.9008 4.69338 15.2177 2 11.9074 2C9.29018 2 7.06708 3.68431 6.24974 6.03086C6.24003 6.06013 6.21303 6.08072 6.18172 6.08289C3.83769 6.25305 1.99032 8.22025 2.00004 10.6188C2.00976 12.9545 3.82473 14.8491 6.09211 15.1017" stroke="#B5BEC8" stroke-miterlimit="10" stroke-linecap="round"/>
<path d="M8.32812 6.75384C8.82479 5.24728 10.2392 4.16125 11.9063 4.16125" stroke="#B5BEC8" stroke-miterlimit="10" stroke-linecap="round"/>
<path d="M4.74902 21H18.7474" stroke="#B5BEC8" stroke-miterlimit="10" stroke-linecap="round"/>
<path d="M11.7659 20.9176V19.2539" stroke="#B5BEC8" stroke-miterlimit="10" stroke-linecap="round"/>
</svg>
