<svg width="18" height="21" viewBox="0 0 18 21" fill="none" xmlns="http://www.w3.org/2000/svg">
<path d="M17.3507 3.65547C17.3507 5.12155 16.1613 6.31095 14.6953 6.31095C13.2292 6.31095 12.0398 5.12155 12.0398 3.65547C12.0398 2.1894 13.2292 1 14.6953 1C16.1613 1 17.3507 2.1894 17.3507 3.65547Z" stroke="#B5BEC8" stroke-miterlimit="10" stroke-linecap="round"/>
<path d="M6.31095 10.7126C6.31095 12.1787 5.12155 13.3681 3.65547 13.3681C2.1894 13.3681 1 12.1787 1 10.7126C1 9.24652 2.1894 8.05713 3.65547 8.05713C5.12155 8.05713 6.31095 9.24652 6.31095 10.7126Z" stroke="#B5BEC8" stroke-miterlimit="10" stroke-linecap="round"/>
<path d="M17.3759 17.7447C17.3759 19.2108 16.1865 20.4002 14.7204 20.4002C13.2543 20.4002 12.0649 19.2108 12.0649 17.7447C12.0649 16.2786 13.2543 15.0892 14.7204 15.0892C16.1865 15.0892 17.3759 16.2786 17.3759 17.7447Z" stroke="#B5BEC8" stroke-miterlimit="10" stroke-linecap="round"/>
<path d="M7.80469 8.05721L12.4544 5.08142" stroke="#B5BEC8" stroke-miterlimit="10" stroke-linecap="round"/>
<path d="M5.89771 12.1362L10.7379 15.213" stroke="#B5BEC8" stroke-miterlimit="10" stroke-linecap="round"/>
</svg>
