<svg width="32" height="40" viewBox="0 0 32 40" fill="none" xmlns="http://www.w3.org/2000/svg">
<path d="M18.5175 0C20.6895 5.09146 10.7305 8.23572 9.80494 12.477C8.95651 16.3746 15.7223 20.9034 15.7285 20.9034C14.7011 19.2907 13.9453 17.9623 12.9148 15.4525C11.1717 11.2081 23.531 7.36683 18.5175 0ZM25.1322 7.05115C25.1322 7.05115 16.3949 7.62 15.9506 13.2772C15.7532 15.7963 18.2491 17.1215 18.3201 18.9531C18.3787 20.4502 16.8392 21.7036 16.8392 21.7036C16.8392 21.7036 19.6405 21.1628 20.5167 18.8781C21.4886 16.3433 18.6224 14.6305 18.9124 12.6021C19.1901 10.6611 25.1322 7.05115 25.1322 7.05115ZM11.4092 20.1283C11.4092 20.1283 3.41242 20.0126 3.41242 22.3036C3.41242 24.6978 13.8805 24.8759 21.3559 23.4038C21.3559 23.4038 23.3428 22.0192 23.8734 21.5035C18.9741 22.5162 7.80573 22.6287 7.80573 21.7536C7.80573 20.9472 11.4092 20.1283 11.4092 20.1283ZM26.7858 20.1283C26.0022 20.1908 25.1568 20.4971 24.3917 21.0534C26.1935 20.6596 27.7237 21.7911 27.7237 23.0788C27.7237 25.9792 23.5772 28.7047 23.5772 28.7047C23.5772 28.7047 29.9944 27.9671 29.9944 23.2038C29.9944 21.0409 28.5104 19.9908 26.7858 20.1283ZM9.48408 24.579C8.25617 24.579 6.42357 25.5542 6.42357 26.4793C6.42357 28.339 15.6545 29.7705 22.4912 27.0544L20.1218 25.5792C15.4879 27.0826 6.95422 26.5919 9.48408 24.579ZM10.6194 28.7547C8.938 28.7547 7.83041 29.783 7.83041 30.555C7.83041 32.9429 17.8727 33.1836 21.8495 30.755L19.332 29.1298C16.361 30.4018 8.90406 30.5956 10.6194 28.7547ZM5.01672 30.9051C2.27707 30.8488 0.5 32.0959 0.5 33.1304C0.5 38.6313 28.5382 38.3782 28.5382 32.7554C28.5382 31.8208 27.4738 31.3676 27.082 31.1551C29.3743 36.531 4.12818 36.1028 4.12818 32.9304C4.12818 32.2084 5.98547 31.5177 7.70701 31.8552L6.2508 31.0051C5.82195 30.9394 5.40854 30.9144 5.01672 30.9051ZM31.5 34.6057C27.2363 38.7001 16.4319 40.1847 5.55971 37.6562C16.4288 42.1631 31.4475 39.6346 31.5 34.6057Z" fill="#F8582A"/>
</svg>
