<svg width="26" height="40" viewBox="0 0 26 40" fill="none" xmlns="http://www.w3.org/2000/svg">
<path d="M9.08852 3.55924C8.64275 3.11509 8.02431 2.84146 7.33489 2.84146C6.6472 2.84146 6.03352 3.11509 5.59339 3.55924H5.58213C5.13767 4.00039 4.86199 4.61593 4.86199 5.29591C4.86199 5.97975 5.13767 6.59142 5.58213 7.02828L5.59339 7.0403C6.03352 7.48059 6.6472 7.75035 7.33489 7.75035C8.02431 7.75035 8.64275 7.48059 9.08852 7.0403L9.09371 7.02828C9.53991 6.59142 9.81212 5.97975 9.81212 5.29591C9.81212 4.61593 9.53991 4.00039 9.09371 3.55924H9.08852ZM7.33489 37.1585C8.02431 37.1585 8.64275 36.8798 9.08852 36.4438L9.09371 36.4309C9.53991 35.9958 9.81212 35.3802 9.81212 34.7037C9.81212 34.0198 9.53991 33.4073 9.09371 32.964H9.08852C8.64275 32.5155 8.02431 32.2445 7.33489 32.2445C6.6472 32.2445 6.03352 32.5155 5.59339 32.964H5.58213C5.13767 33.4073 4.86199 34.0198 4.86199 34.7037C4.86199 35.3802 5.13767 35.9958 5.58213 36.4309L5.59339 36.4438C6.03352 36.8798 6.6472 37.1585 7.33489 37.1585ZM20.8086 29.7218C21.421 29.562 21.9754 29.1719 22.3143 28.5817L22.3597 28.4954C22.6609 27.9366 22.7159 27.2905 22.5549 26.7171C22.3926 26.105 21.9953 25.562 21.402 25.224L21.3669 25.2008C20.7887 24.8855 20.1309 24.8167 19.5259 24.9804C18.9109 25.1329 18.3582 25.5392 18.0215 26.1243C17.6805 26.7059 17.6095 27.3743 17.7727 27.9894C17.941 28.5946 18.3353 29.1414 18.9252 29.4834H18.9286C19.5198 29.8206 20.188 29.8811 20.8086 29.7218ZM9.87141 17.4848C9.22224 16.8422 8.32639 16.4393 7.33489 16.4393C6.34469 16.4393 5.45143 16.8422 4.80356 17.4848C4.15786 18.1265 3.7597 19.0118 3.7597 19.9959C3.7597 20.98 4.15786 21.8692 4.80356 22.5182C5.45143 23.157 6.34469 23.556 7.33489 23.556C8.32639 23.556 9.22224 23.157 9.87141 22.5182C10.5189 21.8692 10.917 20.98 10.917 19.9959C10.917 19.0118 10.5189 18.1265 9.87141 17.4848ZM8.44497 13.3014C9.8844 13.5368 11.1767 14.2211 12.1647 15.2086H12.1721C12.3292 15.3641 12.4819 15.5355 12.6243 15.7064L15.0933 14.2889C14.7614 13.2932 14.7458 12.2524 15.0128 11.2761C15.3647 9.96897 16.2186 8.79888 17.4987 8.06564L17.5403 8.03943C18.8066 7.32853 20.2456 7.18034 21.5444 7.52956C22.86 7.87964 24.0467 8.73101 24.7854 9.99946V10.0033C25.5207 11.2649 25.6696 12.7125 25.3191 14.0157C24.9689 15.3224 24.112 16.5007 22.8332 17.2296L22.496 17.4272H22.4618C21.2791 17.9861 19.9786 18.0737 18.7841 17.7614C17.8034 17.5037 16.9041 16.9599 16.1995 16.1888L13.734 17.6025C14.0174 18.3465 14.1741 19.1484 14.1741 19.9959C14.1741 20.8391 14.0174 21.6527 13.734 22.4005L16.1995 23.8103C16.9041 23.0272 17.8034 22.4959 18.7841 22.2373C20.1002 21.8804 21.5586 22.032 22.8332 22.7695L22.915 22.8073V22.8112C24.1462 23.5522 24.9728 24.6956 25.3191 25.9873C25.6696 27.2828 25.5207 28.7312 24.7854 29.9954L24.7409 30.0834L24.7357 30.0761C23.9973 31.2948 22.8332 32.1204 21.5482 32.4696C20.2304 32.8145 18.7715 32.6672 17.4987 31.9404V31.9305C16.2186 31.196 15.3647 30.0233 15.0128 28.7188C14.7458 27.7467 14.7614 26.7059 15.0933 25.7106L12.6243 24.2966C12.4819 24.4675 12.3292 24.6312 12.1721 24.7867L12.1647 24.7944C11.1767 25.7785 9.8844 26.4623 8.44497 26.69V29.5216C9.47066 29.7342 10.389 30.2432 11.1083 30.9576L11.1122 30.9649C12.0764 31.9176 12.6737 33.2449 12.6737 34.7037C12.6737 36.1581 12.0764 37.4777 11.1122 38.4352L11.1083 38.4502C10.1371 39.4072 8.80505 40 7.33489 40C5.87253 40 4.53697 39.4072 3.56798 38.4502H3.56408V38.4352C2.59898 37.4777 2.00045 36.1581 2.00045 34.7037C2.00045 33.2449 2.59898 31.9176 3.56408 30.9649V30.9576H3.56798C4.28682 30.2432 5.20691 29.7342 6.22871 29.5216V26.69C4.78971 26.4623 3.4996 25.7785 2.51329 24.7944L2.50291 24.7867C1.27121 23.5599 0.5 21.8692 0.5 19.9959C0.5 18.1265 1.27121 16.4358 2.50291 15.2086H2.51329C3.4996 14.2211 4.78971 13.5368 6.22871 13.3014V10.4818C5.20691 10.2619 4.28682 9.7529 3.56798 9.04243H3.56408V9.0347C2.59898 8.07337 2.00045 6.75508 2.00045 5.29591C2.00045 3.84446 2.59898 2.51458 3.56408 1.55711L3.56798 1.55325C4.53697 0.592348 5.87253 0 7.33489 0C8.80505 0 10.1371 0.592348 11.1083 1.55325V1.55711H11.1122C12.0764 2.51458 12.6737 3.84446 12.6737 5.29591C12.6737 6.75508 12.0764 8.07337 11.1122 9.0347L11.1083 9.04243C10.389 9.7529 9.47066 10.2619 8.44497 10.4818V13.3014ZM22.3143 11.4208L22.2931 11.3899C21.9529 10.8203 21.4093 10.4406 20.8086 10.277C20.188 10.1133 19.5198 10.182 18.9252 10.5205H18.9286C18.3353 10.8547 17.9384 11.4011 17.7727 12.0136C17.6095 12.6214 17.6805 13.2932 18.0215 13.8787L18.0332 13.8938C18.3747 14.4715 18.9187 14.8589 19.5259 15.0149C20.1361 15.1863 20.816 15.1137 21.402 14.7752L21.4336 14.7602C22.0105 14.4182 22.3948 13.8787 22.5549 13.2859C22.7185 12.6743 22.6531 12.0059 22.3143 11.4208Z" fill="#004C8F"/>
</svg>
