<svg width="44" height="40" viewBox="0 0 44 40" fill="none" xmlns="http://www.w3.org/2000/svg">
<path d="M3.97385 7.22909C5.96966 7.22909 7.58759 5.6108 7.58759 3.61454C7.58759 1.61829 5.96966 0 3.97385 0C1.97803 0 0.360107 1.61829 0.360107 3.61454C0.360107 5.6108 1.97803 7.22909 3.97385 7.22909Z" fill="#4E7EA6"/>
<path d="M3.97385 23.6145C5.96966 23.6145 7.58759 21.9962 7.58759 19.9999C7.58759 18.0037 5.96966 16.3854 3.97385 16.3854C1.97803 16.3854 0.360107 18.0037 0.360107 19.9999C0.360107 21.9962 1.97803 23.6145 3.97385 23.6145Z" fill="#4E7EA6"/>
<path d="M3.97385 40C5.96966 40 7.58759 38.3817 7.58759 36.3854C7.58759 34.3892 5.96966 32.7709 3.97385 32.7709C1.97803 32.7709 0.360107 34.3892 0.360107 36.3854C0.360107 38.3817 1.97803 40 3.97385 40Z" fill="#4E7EA6"/>
<path d="M39.1217 24.5199C41.617 24.5199 43.6399 22.497 43.6399 20.0017C43.6399 17.5064 41.617 15.4835 39.1217 15.4835C36.6263 15.4835 34.6035 17.5064 34.6035 20.0017C34.6035 22.497 36.6263 24.5199 39.1217 24.5199Z" fill="#4E7EA6"/>
<path d="M11.0706 22.1699H18.7117C19.0128 21.6477 19.3398 21.1412 19.6913 20.6523L20.1485 19.9925C19.6696 19.3327 19.2124 18.6509 18.7553 17.7931H11.0706C11.2371 18.3587 11.3393 18.9416 11.3754 19.5306V20.4543C11.3411 21.0363 11.2388 21.6122 11.0706 22.1699Z" fill="#286090"/>
<path d="M25.4167 13.3502L24.916 12.4484L24.3065 11.4367L23.3486 9.52323C20.6057 4.02478 17.7756 1.49548 12.072 1.49548H11.0706C11.2763 2.21 11.3789 2.95075 11.3754 3.69487C11.3796 4.43902 11.2769 5.17986 11.0706 5.89425H12.072C15.5987 5.89425 17.1443 7.01594 19.2777 10.9088L19.8002 11.8546L20.3227 12.9103C23.4792 19.2885 25.765 21.7078 31.055 22.2357C30.8822 21.5156 30.7945 20.7773 30.7938 20.0363C30.7962 19.2926 30.8988 18.5527 31.0986 17.8369H31.2292C28.6604 17.595 27.1801 16.4733 25.4167 13.3502Z" fill="#4E7EA6"/>
<path d="M21.4111 25.1609L20.8887 26.1506L20.0614 27.8222L19.539 28.8119L19.0383 29.7136C17.0355 33.2547 15.4681 34.2884 12.072 34.2884H11.0706C11.2407 34.8531 11.3431 35.4365 11.3754 36.0259V36.8396C11.3412 37.4288 11.2389 38.012 11.0706 38.5772H12.638C17.8845 38.4232 20.7145 35.8719 23.5228 30.5714L24.6983 28.2181L25.1555 27.3603L25.5473 26.6345C25.8625 26.0851 26.2115 25.5562 26.5923 25.0509C25.2415 24.5407 23.9892 23.7964 22.8915 22.8516C22.337 23.5796 21.8419 24.3519 21.4111 25.1609Z" fill="#286090"/>
</svg>
