<svg width="50" height="40" viewBox="0 0 50 40" fill="none" xmlns="http://www.w3.org/2000/svg">
<path fill-rule="evenodd" clip-rule="evenodd" d="M41.4915 2.83401L42.5244 4.19354C42.7955 4.55237 42.7277 5.06668 42.3688 5.33779L41.2722 6.17105C41.4716 6.70131 41.5992 7.26745 41.651 7.84555L42.8992 8.01699C43.3459 8.0768 43.6569 8.49143 43.5971 8.93797L43.3658 10.6324C43.306 11.0789 42.8913 11.3939 42.4446 11.3301L41.0808 11.1427C40.8375 11.673 40.5264 12.1594 40.1596 12.594L40.9252 13.5987C41.1964 13.9575 41.1246 14.4718 40.7657 14.7429L39.4059 15.7755C39.047 16.0466 38.5325 15.9749 38.2613 15.62L37.4279 14.5236C36.8935 14.723 36.3312 14.8506 35.749 14.9024L35.5775 16.1503C35.5177 16.5968 35.103 16.9078 34.6563 16.848L32.9615 16.6168C32.5148 16.557 32.2038 16.1423 32.2636 15.6958L32.451 14.3323C31.9246 14.0891 31.4341 13.7781 30.9994 13.4153L29.9945 14.1768C29.6356 14.4479 29.1212 14.3801 28.85 14.0213L27.8171 12.6617C27.546 12.3029 27.6137 11.7886 27.9727 11.5175L29.0693 10.6842C28.8699 10.15 28.7423 9.58783 28.6905 9.00973L27.4423 8.83829C26.9956 8.77849 26.6806 8.36385 26.7444 7.91732L26.9757 6.22288C27.0395 5.77635 27.4502 5.46537 27.8969 5.52517L29.2607 5.71256C29.504 5.18628 29.815 4.69589 30.1779 4.26132L29.4163 3.25662C29.1451 2.90178 29.2129 2.38747 29.5718 2.11636L30.9316 1.08375C31.2906 0.812642 31.805 0.88042 32.0762 1.23924L32.9096 2.33564C33.44 2.1363 34.0063 2.00872 34.5845 1.95689L34.756 0.708982C34.8158 0.262448 35.2306 -0.0525177 35.6772 0.00728595L37.372 0.238527C37.8187 0.298331 38.1337 0.712969 38.0699 1.1595L37.8825 2.52303C38.4129 2.76623 38.8994 3.07721 39.3381 3.444L40.343 2.6825C40.7019 2.40741 41.2164 2.47518 41.4915 2.83401ZM12.3323 26.7595V20.1811H15.7219C16.352 20.1811 16.8306 20.2329 17.1616 20.3445C17.4926 20.4522 17.7637 20.6515 17.9631 20.9426C18.1665 21.2376 18.2702 21.5924 18.2702 22.0111C18.2702 22.3739 18.1904 22.6928 18.0349 22.956C17.8794 23.2231 17.664 23.4384 17.3929 23.6018C17.2214 23.7055 16.9821 23.7932 16.679 23.861C16.9223 23.9447 17.0978 24.0205 17.2054 24.1042C17.2812 24.16 17.3889 24.2756 17.5284 24.451C17.668 24.6265 17.7637 24.766 17.8116 24.8617L18.8006 26.7635H16.5036L15.4189 24.758C15.2793 24.4989 15.1597 24.3274 15.052 24.2517C14.9044 24.152 14.7369 24.1002 14.5535 24.1002H14.374V26.7635H12.3323V26.7595ZM19.5024 38.2139H15.706L15.1597 40H11.7381L15.8176 29.1596H19.4865L23.5501 40H20.0408L19.5024 38.2139ZM18.7926 35.8656L17.6082 31.9664L16.4198 35.8656H18.7926ZM24.3397 29.1596H29.9147C31.131 29.1596 32.0403 29.4466 32.6424 30.0247C33.2446 30.6028 33.5477 31.4281 33.5477 32.4926C33.5477 33.589 33.2167 34.4462 32.5587 35.0642C31.9007 35.6822 30.8918 35.9892 29.5399 35.9892H27.7015V40H24.3397V29.1596ZM27.7015 33.7924H28.527C29.177 33.7924 29.6356 33.6807 29.8988 33.4535C30.162 33.2302 30.2936 32.9392 30.2936 32.5923C30.2936 32.2534 30.1779 31.9624 29.9506 31.7272C29.7233 31.4919 29.2926 31.3723 28.6626 31.3723H27.7015V33.7924ZM34.9036 29.1596H38.2653V40H34.9036V29.1596ZM14.374 22.8523H15.2314C15.3232 22.8523 15.5026 22.8204 15.7698 22.7606C15.9054 22.7327 16.017 22.6649 16.1008 22.5533C16.1885 22.4416 16.2284 22.3141 16.2284 22.1705C16.2284 21.9592 16.1606 21.7918 16.025 21.6801C15.8894 21.5645 15.6382 21.5087 15.2673 21.5087H14.374V22.8523ZM19.1914 20.1811H24.6348V21.5845H21.2332V22.633H24.3876V23.9726H21.2332V25.2684H24.7345V26.7555H19.1914V20.1811ZM25.217 24.5826L27.1472 24.463C27.187 24.778 27.2748 25.0132 27.4024 25.1767C27.6137 25.4398 27.9128 25.5754 28.2997 25.5754C28.5868 25.5754 28.8141 25.5076 28.9696 25.372C29.1251 25.2365 29.2049 25.077 29.2049 24.8976C29.2049 24.7261 29.1291 24.5746 28.9816 24.4391C28.834 24.3035 28.4871 24.1799 27.9408 24.0563C27.0515 23.857 26.4174 23.5899 26.0346 23.259C25.6517 22.928 25.4603 22.5054 25.4603 21.9911C25.4603 21.6522 25.56 21.3333 25.7554 21.0343C25.9508 20.7352 26.2459 20.496 26.6407 20.3246C27.0355 20.1532 27.5739 20.0694 28.2598 20.0694C29.1012 20.0694 29.7393 20.2249 30.1819 20.5399C30.6206 20.8548 30.8838 21.3492 30.9675 22.035L29.0574 22.1506C29.0055 21.8516 28.8978 21.6323 28.7383 21.5007C28.5748 21.3652 28.3475 21.2974 28.0644 21.2974C27.8291 21.2974 27.6496 21.3492 27.53 21.4489C27.4104 21.5486 27.3505 21.6722 27.3505 21.8157C27.3505 21.9194 27.4024 22.0111 27.4981 22.0988C27.5938 22.1825 27.8171 22.2662 28.176 22.342C29.0653 22.5333 29.7034 22.7287 30.0862 22.9241C30.4691 23.1194 30.7522 23.3626 30.9237 23.6537C31.0991 23.9407 31.1869 24.2676 31.1869 24.6265C31.1869 25.0491 31.0712 25.4358 30.8359 25.7906C30.6046 26.1455 30.2776 26.4166 29.8589 26.6C29.4402 26.7834 28.9138 26.8751 28.2757 26.8751C27.1591 26.8751 26.3815 26.6598 25.9508 26.2292C25.5201 25.7906 25.2769 25.2444 25.217 24.5826ZM31.482 20.1811H37.6671V21.8077H35.5935V26.7595H33.5597V21.8077H31.482V20.1811ZM24.6388 4.56831C23.909 4.5125 23.1713 4.52047 22.4415 4.59223C20.1963 4.80753 18.015 5.62484 16.2124 7.02425C14.1268 8.63895 12.5436 11.055 11.9335 14.2565L11.7421 15.2572L10.7451 15.4326C9.76806 15.6041 8.89472 15.8393 8.12905 16.1383C7.38731 16.4254 6.72532 16.7802 6.14708 17.1989C5.68449 17.5338 5.2857 17.9085 4.94673 18.3152C3.89793 19.5711 3.41141 21.1459 3.42337 22.7407C3.43533 24.3593 3.96173 25.994 4.93477 27.3376C5.29767 27.8359 5.71639 28.2944 6.19493 28.6931C6.68145 29.0958 7.22779 29.4307 7.84192 29.6819C8.18887 29.8254 8.55974 29.945 8.94656 30.0407V33.0269C8.14899 32.8834 7.41522 32.6681 6.72931 32.385C5.82406 32.0102 5.0225 31.5278 4.31665 30.9377C3.64669 30.3796 3.06047 29.7457 2.56199 29.0559C1.23403 27.2219 0.516217 24.9813 0.500266 22.7486C0.484314 20.492 1.18618 18.2474 2.70157 16.4294C3.19207 15.8393 3.77031 15.2971 4.4323 14.8187C5.20196 14.2605 6.08327 13.79 7.08024 13.4033C7.76615 13.1362 8.49992 12.9129 9.27357 12.7335C10.1509 9.24895 12.0212 6.56576 14.4259 4.70387C16.675 2.96159 19.3828 1.94493 22.1703 1.6778C23.6339 1.53826 25.1173 1.60205 26.5689 1.87316C26.537 2.00473 26.5091 2.1363 26.4932 2.27185L26.4892 2.29577C26.4613 2.52303 26.4493 2.75028 26.4613 2.98152C26.1542 3.10113 25.8671 3.26459 25.6079 3.46394L25.5959 3.47191C25.2091 3.76296 24.8821 4.13773 24.6388 4.56831ZM45.7386 12.2232C45.9619 12.4265 46.1772 12.6378 46.3886 12.8651C46.8153 13.3236 47.2181 13.8419 47.5969 14.42C48.873 16.3815 49.5271 19.0009 49.4991 21.5645C49.4712 24.0803 48.7933 26.584 47.4055 28.426C46.5003 29.6261 45.3398 30.6068 43.948 31.3843C42.9949 31.9185 41.9222 32.3611 40.7538 32.7199V29.63C41.3838 29.3948 41.9701 29.1317 42.5084 28.8327C43.5572 28.2466 44.4146 27.5329 45.0567 26.6757C46.0536 25.3481 46.5441 23.4703 46.5641 21.5446C46.588 19.5232 46.0935 17.4939 45.1324 16.0187C44.8573 15.5921 44.5542 15.2094 44.2352 14.8665C44.1115 14.7349 43.9879 14.6113 43.8603 14.4917C43.8802 14.2924 43.8882 14.0891 43.8763 13.8857C44.1833 13.7661 44.4704 13.6027 44.7297 13.4033L44.7416 13.3953C45.1524 13.0804 45.4953 12.6817 45.7386 12.2232ZM35.6254 5.10256C37.4638 5.35373 38.7479 7.04817 38.4966 8.88614C38.2454 10.7241 36.5505 12.0119 34.7121 11.7607C32.8737 11.5095 31.5857 9.81509 31.8409 7.97712C32.0961 6.13916 33.787 4.85138 35.6254 5.10256Z" fill="#69E3FF"/>
</svg>
