<svg width="21" height="19" viewBox="0 0 21 19" fill="none" xmlns="http://www.w3.org/2000/svg">
<g clip-path="url(#clip0_8889_1189)">
<mask id="path-1-inside-1_8889_1189" fill="white">
<path d="M19.4387 3.42023H16.2363V1.51483C16.2363 0.771516 15.6349 0.166626 14.8959 0.166626H6.16307C5.42406 0.166626 4.82267 0.771516 4.82267 1.51483V3.42023H1.56014C0.699691 3.42023 0 4.124 0 4.98946V17.2641C0 18.1295 0.699691 18.8333 1.56014 18.8333H19.4387C20.2991 18.8333 20.9988 18.1295 20.9988 17.2641V4.98946C20.9988 4.124 20.2991 3.42023 19.4387 3.42023ZM5.67964 1.51483C5.67964 1.24728 5.89591 1.02859 6.16307 1.02859H14.8959C15.1619 1.02859 15.3793 1.24612 15.3793 1.51483V3.42023H5.67964V1.51483ZM20.143 17.2641C20.143 17.6538 19.8273 17.9713 19.4399 17.9713H1.56014C1.17271 17.9713 0.856978 17.6538 0.856978 17.2641V4.98946C0.856978 4.59977 1.17271 4.2822 1.56014 4.2822H19.4387C19.8261 4.2822 20.1419 4.59977 20.1419 4.98946V17.2641H20.143Z"/>
</mask>
<path d="M16.2363 3.42023H15.2363V4.42023H16.2363V3.42023ZM4.82267 3.42023V4.42023H5.82267V3.42023H4.82267ZM15.3793 3.42023V4.42023H16.3793V3.42023H15.3793ZM5.67964 3.42023H4.67964V4.42023H5.67964V3.42023ZM20.143 17.2641H21.143V16.2641H20.143V17.2641ZM20.1419 17.2641H19.1419V18.2641H20.1419V17.2641ZM19.4387 3.42023V2.42023H16.2363V3.42023V4.42023H19.4387V3.42023ZM16.2363 3.42023H17.2363V1.51483H16.2363H15.2363V3.42023H16.2363ZM16.2363 1.51483H17.2363C17.2363 0.224714 16.1927 -0.833374 14.8959 -0.833374V0.166626V1.16663C15.0772 1.16663 15.2363 1.31832 15.2363 1.51483H16.2363ZM14.8959 0.166626V-0.833374H6.16307V0.166626V1.16663H14.8959V0.166626ZM6.16307 0.166626V-0.833374C4.8663 -0.833374 3.82267 0.224713 3.82267 1.51483H4.82267H5.82267C5.82267 1.31832 5.98181 1.16663 6.16307 1.16663V0.166626ZM4.82267 1.51483H3.82267V3.42023H4.82267H5.82267V1.51483H4.82267ZM4.82267 3.42023V2.42023H1.56014V3.42023V4.42023H4.82267V3.42023ZM1.56014 3.42023V2.42023C0.14194 2.42023 -1 3.5772 -1 4.98946H0H1C1 4.6708 1.25744 4.42023 1.56014 4.42023V3.42023ZM0 4.98946H-1V17.2641H0H1V4.98946H0ZM0 17.2641H-1C-1 18.6763 0.14194 19.8333 1.56014 19.8333V18.8333V17.8333C1.25744 17.8333 1 17.5827 1 17.2641H0ZM1.56014 18.8333V19.8333H19.4387V18.8333V17.8333H1.56014V18.8333ZM19.4387 18.8333V19.8333C20.8569 19.8333 21.9988 18.6763 21.9988 17.2641H20.9988H19.9988C19.9988 17.5827 19.7414 17.8333 19.4387 17.8333V18.8333ZM20.9988 17.2641H21.9988V4.98946H20.9988H19.9988V17.2641H20.9988ZM20.9988 4.98946H21.9988C21.9988 3.5772 20.8569 2.42023 19.4387 2.42023V3.42023V4.42023C19.7414 4.42023 19.9988 4.6708 19.9988 4.98946H20.9988ZM5.67964 1.51483H6.67964C6.67964 1.79253 6.45522 2.02859 6.16307 2.02859V1.02859V0.0285939C5.33661 0.0285939 4.67964 0.702044 4.67964 1.51483H5.67964ZM6.16307 1.02859V2.02859H14.8959V1.02859V0.0285939H6.16307V1.02859ZM14.8959 1.02859V2.02859C14.6057 2.02859 14.3793 1.79448 14.3793 1.51483H15.3793H16.3793C16.3793 0.69776 15.7181 0.0285939 14.8959 0.0285939V1.02859ZM15.3793 1.51483H14.3793V3.42023H15.3793H16.3793V1.51483H15.3793ZM15.3793 3.42023V2.42023H5.67964V3.42023V4.42023H15.3793V3.42023ZM5.67964 3.42023H6.67964V1.51483H5.67964H4.67964V3.42023H5.67964ZM20.143 17.2641H19.143C19.143 17.107 19.2695 16.9713 19.4399 16.9713V17.9713V18.9713C20.385 18.9713 21.143 18.2006 21.143 17.2641H20.143ZM19.4399 17.9713V16.9713H1.56014V17.9713V18.9713H19.4399V17.9713ZM1.56014 17.9713V16.9713C1.73046 16.9713 1.85698 17.107 1.85698 17.2641H0.856978H-0.143022C-0.143022 18.2006 0.614955 18.9713 1.56014 18.9713V17.9713ZM0.856978 17.2641H1.85698V4.98946H0.856978H-0.143022V17.2641H0.856978ZM0.856978 4.98946H1.85698C1.85698 5.14657 1.73046 5.2822 1.56014 5.2822V4.2822V3.2822C0.614955 3.2822 -0.143022 4.05297 -0.143022 4.98946H0.856978ZM1.56014 4.2822V5.2822H19.4387V4.2822V3.2822H1.56014V4.2822ZM19.4387 4.2822V5.2822C19.2684 5.2822 19.1419 5.14657 19.1419 4.98946H20.1419H21.1419C21.1419 4.05297 20.3839 3.2822 19.4387 3.2822V4.2822ZM20.1419 4.98946H19.1419V17.2641H20.1419H21.1419V4.98946H20.1419ZM20.1419 17.2641V18.2641H20.143V17.2641V16.2641H20.1419V17.2641Z" fill="#1D86FF" mask="url(#path-1-inside-1_8889_1189)"/>
<mask id="path-3-inside-2_8889_1189" fill="white">
<path d="M16.1184 6.23645C15.3146 6.23645 14.6612 6.89369 14.6612 7.70214C14.6612 8.08602 14.8092 8.43615 15.0509 8.69789L13.1878 11.8829C13.086 11.8608 12.9808 11.848 12.8721 11.848C12.4754 11.848 12.1145 12.0085 11.852 12.2679L8.63342 10.1996C8.64499 10.1252 8.65077 10.0496 8.65077 9.97164C8.65077 9.16319 7.99734 8.50595 7.19356 8.50595C6.38979 8.50595 5.73635 9.16319 5.73635 9.97164C5.73635 10.3381 5.87051 10.6731 6.09256 10.9302C3.46265 15.6658 3.46265 15.689 3.46265 15.8379C3.46265 16.0764 3.65463 16.2695 3.89171 16.2695C4.07444 16.2695 4.23057 16.1543 4.29187 15.9926C4.42371 15.7204 5.80459 13.2206 6.82001 11.3896C6.93913 11.4222 7.06519 11.4385 7.19472 11.4385C7.61106 11.4385 7.98809 11.2617 8.25293 10.979L11.4438 13.0287C11.4252 13.1206 11.416 13.2171 11.416 13.3148C11.416 14.1233 12.0694 14.7805 12.8732 14.7805C13.677 14.7805 14.3304 14.1233 14.3304 13.3148C14.3304 12.9263 14.1789 12.5727 13.9326 12.3098L15.7922 9.13061C15.8975 9.15504 16.0074 9.16784 16.1195 9.16784C16.9233 9.16784 17.5768 8.5106 17.5768 7.70214C17.5768 6.89369 16.9233 6.23645 16.1195 6.23645H16.1184ZM7.19125 10.5777C6.86049 10.5777 6.59102 10.3067 6.59102 9.97397C6.59102 9.64128 6.86049 9.37024 7.19125 9.37024C7.52201 9.37024 7.79148 9.64128 7.79148 9.97397C7.79148 10.3067 7.52201 10.5777 7.19125 10.5777ZM12.8709 13.9197C12.5401 13.9197 12.2707 13.6487 12.2707 13.316C12.2707 13.2183 12.2949 13.1264 12.3354 13.0438C12.3366 13.0415 12.3377 13.0391 12.3389 13.0368C12.4395 12.8437 12.6396 12.7123 12.8709 12.7123C12.9657 12.7123 13.0559 12.7355 13.1357 12.7751C13.1427 12.7797 13.1485 12.7844 13.1554 12.7879C13.167 12.7949 13.1774 12.7995 13.1889 12.8053C13.3578 12.9123 13.4711 13.1008 13.4711 13.3172C13.4711 13.6498 13.2017 13.9209 12.8709 13.9209V13.9197ZM16.1184 8.30703C16.0201 8.30703 15.9276 8.28261 15.8466 8.24073C15.8397 8.23608 15.8316 8.23026 15.8246 8.22561C15.8142 8.21863 15.8027 8.21397 15.7911 8.20816C15.6269 8.09998 15.5182 7.91386 15.5182 7.70331C15.5182 7.37062 15.7876 7.09958 16.1184 7.09958C16.4491 7.09958 16.7186 7.37062 16.7186 7.70331C16.7186 8.036 16.4491 8.30703 16.1184 8.30703Z"/>
</mask>
<path d="M15.0509 8.69789L15.9141 9.20282L16.2881 8.56353L15.7856 8.01943L15.0509 8.69789ZM13.1878 11.8829L12.9756 12.8601L13.6846 13.0141L14.0509 12.3878L13.1878 11.8829ZM11.852 12.2679L11.3114 13.1092L11.9852 13.5421L12.5549 12.9792L11.852 12.2679ZM8.63342 10.1996L7.64528 10.0461L7.54539 10.6891L8.09282 11.0409L8.63342 10.1996ZM6.09256 10.9302L6.96679 11.4157L7.30589 10.8051L6.84934 10.2765L6.09256 10.9302ZM4.29187 15.9926L3.39188 15.5567L3.37253 15.5967L3.3568 15.6382L4.29187 15.9926ZM6.82001 11.3896L7.08376 10.4251L6.32633 10.218L5.94549 10.9047L6.82001 11.3896ZM8.25293 10.979L8.79339 10.1376L8.09264 9.68751L7.52319 10.2953L8.25293 10.979ZM11.4438 13.0287L12.4241 13.2261L12.5589 12.5565L11.9842 12.1873L11.4438 13.0287ZM13.9326 12.3098L13.0694 11.8049L12.6926 12.449L13.2029 12.9935L13.9326 12.3098ZM15.7922 9.13061L16.0184 8.15651L15.3009 7.98999L14.9291 8.6257L15.7922 9.13061ZM12.8709 13.9197H13.8709V12.9197H12.8709V13.9197ZM12.3354 13.0438L11.44 12.5986L11.4375 12.6037L12.3354 13.0438ZM12.3389 13.0368L11.4521 12.5747L11.4477 12.5831L11.4434 12.5917L12.3389 13.0368ZM13.1357 12.7751L13.6927 11.9445L13.6384 11.9081L13.5798 11.8791L13.1357 12.7751ZM13.1554 12.7879L13.6721 11.9317L13.6391 11.9118L13.6047 11.8945L13.1554 12.7879ZM13.1889 12.8053L13.7243 11.9607L13.6825 11.9342L13.6382 11.9119L13.1889 12.8053ZM12.8709 13.9209H11.8709V14.9209H12.8709V13.9209ZM15.8466 8.24073L15.2897 9.07129L15.3368 9.10287L15.3872 9.12893L15.8466 8.24073ZM15.8246 8.22561L16.3816 7.39505L15.8246 8.22561ZM15.7911 8.20816L15.241 9.04325L15.2897 9.07534L15.3418 9.10154L15.7911 8.20816ZM16.1184 6.23645V5.23645C14.7569 5.23645 13.6612 6.34688 13.6612 7.70214H14.6612H15.6612C15.6612 7.44049 15.8724 7.23645 16.1184 7.23645V6.23645ZM14.6612 7.70214H13.6612C13.6612 8.34786 13.9111 8.93763 14.3163 9.37634L15.0509 8.69789L15.7856 8.01943C15.7073 7.93468 15.6612 7.82417 15.6612 7.70214H14.6612ZM15.0509 8.69789L14.1878 8.19296L12.3246 11.3779L13.1878 11.8829L14.0509 12.3878L15.9141 9.20282L15.0509 8.69789ZM13.1878 11.8829L13.4 10.9056C13.2364 10.8701 13.0598 10.848 12.8721 10.848V11.848V12.848C12.9017 12.848 12.9356 12.8514 12.9756 12.8601L13.1878 11.8829ZM12.8721 11.848V10.848C12.2005 10.848 11.5903 11.1206 11.1491 11.5566L11.852 12.2679L12.5549 12.9792C12.6387 12.8964 12.7502 12.848 12.8721 12.848V11.848ZM11.852 12.2679L12.3926 11.4266L9.17403 9.35836L8.63342 10.1996L8.09282 11.0409L11.3114 13.1092L11.852 12.2679ZM8.63342 10.1996L9.62157 10.3531C9.64123 10.2266 9.65077 10.0996 9.65077 9.97164H8.65077H7.65077C7.65077 9.99956 7.64874 10.0238 7.64528 10.0461L8.63342 10.1996ZM8.65077 9.97164H9.65077C9.65077 8.61638 8.55509 7.50595 7.19356 7.50595V8.50595V9.50595C7.43959 9.50595 7.65077 9.70999 7.65077 9.97164H8.65077ZM7.19356 8.50595V7.50595C5.83204 7.50595 4.73635 8.61638 4.73635 9.97164H5.73635H6.73635C6.73635 9.70999 6.94754 9.50595 7.19356 9.50595V8.50595ZM5.73635 9.97164H4.73635C4.73635 10.5867 4.96259 11.1518 5.33578 11.5838L6.09256 10.9302L6.84934 10.2765C6.77843 10.1944 6.73635 10.0894 6.73635 9.97164H5.73635ZM6.09256 10.9302L5.21833 10.4447C3.90548 12.8087 3.2428 14.0077 2.90904 14.6335C2.74692 14.9374 2.64391 15.1401 2.58279 15.2845C2.5508 15.3601 2.51366 15.4577 2.48969 15.5704C2.46141 15.7032 2.46265 15.8084 2.46265 15.8379H3.46265H4.46265C4.46265 15.8302 4.46389 15.9021 4.44588 15.9867C4.43218 16.0511 4.41559 16.0854 4.42469 16.0639C4.44575 16.0141 4.50711 15.8871 4.67374 15.5746C4.99745 14.9677 5.64973 13.7873 6.96679 11.4157L6.09256 10.9302ZM3.46265 15.8379H2.46265C2.46265 16.6232 3.09688 17.2695 3.89171 17.2695V16.2695V15.2695C4.21238 15.2695 4.46265 15.5296 4.46265 15.8379H3.46265ZM3.89171 16.2695V17.2695C4.5055 17.2695 5.02392 16.8826 5.22693 16.3471L4.29187 15.9926L3.3568 15.6382C3.43722 15.426 3.64338 15.2695 3.89171 15.2695V16.2695ZM4.29187 15.9926L5.19185 16.4285C5.1917 16.4289 5.19218 16.4279 5.19346 16.4253C5.19471 16.4228 5.19644 16.4194 5.19872 16.4149C5.20334 16.4058 5.20945 16.394 5.21723 16.3791C5.23283 16.3492 5.2533 16.3106 5.27867 16.2631C5.32935 16.1683 5.39674 16.0436 5.47817 15.8939C5.64087 15.5948 5.85665 15.2012 6.10068 14.7578C6.58858 13.8713 7.18708 12.7896 7.69453 11.8746L6.82001 11.3896L5.94549 10.9047C4.94388 12.7107 3.53969 15.2515 3.39188 15.5567L4.29187 15.9926ZM6.82001 11.3896L6.55626 12.3542C6.76656 12.4117 6.98168 12.4385 7.19472 12.4385V11.4385V10.4385C7.1487 10.4385 7.1117 10.4327 7.08376 10.4251L6.82001 11.3896ZM7.19472 11.4385V12.4385C7.89957 12.4385 8.53713 12.1383 8.98267 11.6627L8.25293 10.979L7.52319 10.2953C7.43905 10.3851 7.32256 10.4385 7.19472 10.4385V11.4385ZM8.25293 10.979L7.71247 11.8204L10.9033 13.87L11.4438 13.0287L11.9842 12.1873L8.79339 10.1376L8.25293 10.979ZM11.4438 13.0287L10.4634 12.8313C10.4311 12.992 10.416 13.1548 10.416 13.3148H11.416H12.416C12.416 13.2794 12.4194 13.2492 12.4241 13.2261L11.4438 13.0287ZM11.416 13.3148H10.416C10.416 14.6701 11.5117 15.7805 12.8732 15.7805V14.7805V13.7805C12.6272 13.7805 12.416 13.5765 12.416 13.3148H11.416ZM12.8732 14.7805V15.7805C14.2347 15.7805 15.3304 14.6701 15.3304 13.3148H14.3304H13.3304C13.3304 13.5765 13.1192 13.7805 12.8732 13.7805V14.7805ZM14.3304 13.3148H15.3304C15.3304 12.6613 15.0746 12.066 14.6623 11.626L13.9326 12.3098L13.2029 12.9935C13.2832 13.0793 13.3304 13.1913 13.3304 13.3148H14.3304ZM13.9326 12.3098L14.7957 12.8147L16.6554 9.63553L15.7922 9.13061L14.9291 8.6257L13.0694 11.8049L13.9326 12.3098ZM15.7922 9.13061L15.5661 10.1047C15.7457 10.1464 15.9314 10.1678 16.1195 10.1678V9.16784V8.16784C16.0833 8.16784 16.0493 8.1637 16.0184 8.15651L15.7922 9.13061ZM16.1195 9.16784V10.1678C17.4811 10.1678 18.5768 9.0574 18.5768 7.70214H17.5768H16.5768C16.5768 7.9638 16.3656 8.16784 16.1195 8.16784V9.16784ZM17.5768 7.70214H18.5768C18.5768 6.34688 17.4811 5.23645 16.1195 5.23645V6.23645V7.23645C16.3656 7.23645 16.5768 7.44049 16.5768 7.70214H17.5768ZM16.1195 6.23645V5.23645H16.1184V6.23645V7.23645H16.1195V6.23645ZM7.19125 10.5777V9.5777C7.41824 9.5777 7.59102 9.75986 7.59102 9.97397H6.59102H5.59102C5.59102 10.8535 6.30273 11.5777 7.19125 11.5777V10.5777ZM6.59102 9.97397H7.59102C7.59102 10.1881 7.41824 10.3702 7.19125 10.3702V9.37024V8.37024C6.30274 8.37024 5.59102 9.09448 5.59102 9.97397H6.59102ZM7.19125 9.37024V10.3702C6.96426 10.3702 6.79148 10.1881 6.79148 9.97397H7.79148H8.79148C8.79148 9.09448 8.07976 8.37024 7.19125 8.37024V9.37024ZM7.79148 9.97397H6.79148C6.79148 9.75986 6.96426 9.5777 7.19125 9.5777V10.5777V11.5777C8.07976 11.5777 8.79148 10.8535 8.79148 9.97397H7.79148ZM12.8709 13.9197V12.9197C13.0979 12.9197 13.2707 13.1019 13.2707 13.316H12.2707H11.2707C11.2707 14.1955 11.9824 14.9197 12.8709 14.9197V13.9197ZM12.2707 13.316H13.2707C13.2707 13.3869 13.2526 13.4446 13.2334 13.4839L12.3354 13.0438L11.4375 12.6037C11.3373 12.8081 11.2707 13.0497 11.2707 13.316H12.2707ZM12.3354 13.0438L13.2309 13.4889C13.2319 13.4869 13.2316 13.4875 13.2326 13.4854C13.2342 13.4822 13.2328 13.4851 13.2344 13.4819L12.3389 13.0368L11.4434 12.5917C11.4419 12.5947 11.4432 12.5921 11.4417 12.5952C11.4406 12.5974 11.4411 12.5964 11.44 12.5986L12.3354 13.0438ZM12.3389 13.0368L13.2257 13.4989C13.1627 13.6198 13.0307 13.7123 12.8709 13.7123V12.7123V11.7123C12.2485 11.7123 11.7163 12.0676 11.4521 12.5747L12.3389 13.0368ZM12.8709 12.7123V13.7123C12.8012 13.7123 12.7402 13.6951 12.6917 13.6711L13.1357 12.7751L13.5798 11.8791C13.3717 11.7759 13.1303 11.7123 12.8709 11.7123V12.7123ZM13.1357 12.7751L12.5788 13.6056C12.5744 13.6027 12.5708 13.6002 12.5686 13.5987C12.5674 13.5979 12.5665 13.5972 12.5659 13.5968C12.5657 13.5966 12.5654 13.5965 12.5653 13.5964C12.5652 13.5963 12.5651 13.5963 12.5651 13.5962C12.5651 13.5962 12.5651 13.5962 12.5651 13.5962C12.5651 13.5962 12.5651 13.5962 12.5651 13.5962C12.5631 13.5948 12.5718 13.601 12.58 13.6066C12.5984 13.6193 12.6441 13.6501 12.7061 13.6813L13.1554 12.7879L13.6047 11.8945C13.6598 11.9222 13.6991 11.9489 13.7111 11.9572C13.7161 11.9606 13.7217 11.9646 13.7165 11.9609C13.7139 11.9591 13.7044 11.9524 13.6927 11.9445L13.1357 12.7751ZM13.1554 12.7879L12.6387 13.644C12.6744 13.6656 12.7046 13.6812 12.7229 13.6904C12.7311 13.6946 12.7387 13.6982 12.7405 13.6992C12.7439 13.7008 12.7421 13.7 12.7396 13.6987L13.1889 12.8053L13.6382 11.9119C13.63 11.9078 13.6226 11.9042 13.6204 11.9031C13.6167 11.9013 13.6187 11.9023 13.6215 11.9036C13.6288 11.9073 13.648 11.9171 13.6721 11.9317L13.1554 12.7879ZM13.1889 12.8053L12.6536 13.65C12.5477 13.5828 12.4711 13.4602 12.4711 13.3172H13.4711H14.4711C14.4711 12.7414 14.1679 12.2419 13.7243 11.9607L13.1889 12.8053ZM13.4711 13.3172H12.4711C12.4711 13.103 12.6439 12.9209 12.8709 12.9209V13.9209V14.9209C13.7594 14.9209 14.4711 14.1966 14.4711 13.3172H13.4711ZM12.8709 13.9209H13.8709V13.9197H12.8709H11.8709V13.9209H12.8709ZM16.1184 8.30703V7.30703C16.1873 7.30703 16.2517 7.32439 16.3061 7.35253L15.8466 8.24073L15.3872 9.12893C15.6035 9.24082 15.8529 9.30703 16.1184 9.30703V8.30703ZM15.8466 8.24073L16.4035 7.41017C16.4069 7.41242 16.4091 7.41393 16.4093 7.41409C16.4094 7.41418 16.4093 7.41406 16.4071 7.41254C16.4055 7.41144 16.4019 7.40895 16.3981 7.40631C16.3942 7.40361 16.3884 7.39962 16.3816 7.39505L15.8246 8.22561L15.2677 9.05617C15.2644 9.05392 15.2622 9.0524 15.2619 9.05225C15.2618 9.05215 15.262 9.05228 15.2642 9.0538C15.2657 9.05489 15.2693 9.05739 15.2731 9.06003C15.277 9.06273 15.2829 9.06672 15.2897 9.07129L15.8466 8.24073ZM15.8246 8.22561L16.3816 7.39505C16.3215 7.3548 16.2697 7.32896 16.2483 7.31846C16.2424 7.31557 16.2374 7.31319 16.2343 7.31168C16.2327 7.31091 16.2312 7.31024 16.2303 7.3098C16.229 7.30915 16.2291 7.30921 16.2284 7.30888C16.2262 7.30785 16.2322 7.31068 16.2404 7.31477L15.7911 8.20816L15.3418 9.10154C15.3557 9.10855 15.3675 9.11413 15.3711 9.11583C15.3776 9.11893 15.3727 9.11661 15.3683 9.11444C15.3581 9.10946 15.3173 9.08944 15.2677 9.05617L15.8246 8.22561ZM15.7911 8.20816L16.3412 7.37307C16.4444 7.44107 16.5182 7.56182 16.5182 7.70331H15.5182H14.5182C14.5182 8.26589 14.8093 8.75889 15.241 9.04325L15.7911 8.20816ZM15.5182 7.70331H16.5182C16.5182 7.91742 16.3454 8.09958 16.1184 8.09958V7.09958V6.09958C15.2299 6.09958 14.5182 6.82382 14.5182 7.70331H15.5182ZM16.1184 7.09958V8.09958C15.8914 8.09958 15.7186 7.91742 15.7186 7.70331H16.7186H17.7186C17.7186 6.82382 17.0069 6.09958 16.1184 6.09958V7.09958ZM16.7186 7.70331H15.7186C15.7186 7.48919 15.8914 7.30703 16.1184 7.30703V8.30703V9.30703C17.0069 9.30703 17.7186 8.5828 17.7186 7.70331H16.7186Z" fill="#1D86FF" mask="url(#path-3-inside-2_8889_1189)"/>
</g>
<defs>
<clipPath id="clip0_8889_1189">
<rect width="21" height="18.6667" fill="white" transform="translate(0 0.166626)"/>
</clipPath>
</defs>
</svg>
