<svg width="24" height="24" viewBox="0 0 24 24" fill="none" xmlns="http://www.w3.org/2000/svg">
<g clip-path="url(#clip0_9959_1228)">
<mask id="path-1-inside-1_9959_1228" fill="white">
<path d="M12.5003 9.52224C7.76227 9.52224 4.05151 7.82716 4.05151 5.66434C4.05151 3.50152 7.76227 1.80774 12.5003 1.80774C17.2382 1.80774 20.949 3.50282 20.949 5.66564C20.949 7.82846 17.2382 9.52354 12.5003 9.52354V9.52224ZM12.5003 2.62336C7.92306 2.62336 4.84905 4.19596 4.84905 5.66564C4.84905 7.13532 7.92306 8.70792 12.5003 8.70792C17.0775 8.70792 20.1515 7.13532 20.1515 5.66564C20.1515 4.19596 17.0762 2.62336 12.5003 2.62336Z"/>
</mask>
<path d="M12.5003 9.52224H13.5003V8.52224H12.5003V9.52224ZM12.5003 9.52354H11.5003V10.5235H12.5003V9.52354ZM12.5003 9.52224V8.52224C10.2364 8.52224 8.2733 8.11522 6.91455 7.49471C5.47856 6.83893 5.05151 6.12425 5.05151 5.66434H4.05151H3.05151C3.05151 7.36725 4.47985 8.58152 6.08373 9.31398C7.76486 10.0817 10.0262 10.5222 12.5003 10.5222V9.52224ZM4.05151 5.66434H5.05151C5.05151 5.20456 5.47838 4.49018 6.91439 3.83469C8.27315 3.21446 10.2363 2.80774 12.5003 2.80774V1.80774V0.807739C10.0263 0.807739 7.76501 1.2479 6.08389 2.01527C4.48003 2.74738 3.05151 3.9613 3.05151 5.66434H4.05151ZM12.5003 1.80774V2.80774C14.7641 2.80774 16.7272 3.21475 18.086 3.83527C19.522 4.49105 19.949 5.20573 19.949 5.66564H20.949H21.949C21.949 3.96273 20.5207 2.74846 18.9168 2.016C17.2357 1.24826 14.9744 0.807739 12.5003 0.807739V1.80774ZM20.949 5.66564H19.949C19.949 6.12555 19.522 6.84023 18.086 7.49602C16.7272 8.11653 14.7641 8.52354 12.5003 8.52354V9.52354V10.5235C14.9744 10.5235 17.2357 10.083 18.9168 9.31528C20.5207 8.58283 21.949 7.36855 21.949 5.66564H20.949ZM12.5003 9.52354H13.5003V9.52224H12.5003H11.5003V9.52354H12.5003ZM12.5003 2.62336V1.62336C10.1078 1.62336 8.05484 2.03286 6.56295 2.6748C5.81967 2.99462 5.17454 3.38983 4.69934 3.85763C4.22929 4.32036 3.84905 4.93512 3.84905 5.66564H4.84905H5.84905C5.84905 5.66133 5.85305 5.52838 6.10242 5.2829C6.34663 5.04249 6.75608 4.76898 7.35345 4.51195C8.54287 4.00016 10.3156 3.62336 12.5003 3.62336V2.62336ZM4.84905 5.66564H3.84905C3.84905 6.39616 4.22929 7.01092 4.69934 7.47365C5.17454 7.94145 5.81967 8.33666 6.56295 8.65649C8.05484 9.29842 10.1078 9.70792 12.5003 9.70792V8.70792V7.70792C10.3156 7.70792 8.54287 7.33113 7.35345 6.81934C6.75608 6.5623 6.34663 6.2888 6.10242 6.04838C5.85305 5.8029 5.84905 5.66996 5.84905 5.66564H4.84905ZM12.5003 8.70792V9.70792C14.8928 9.70792 16.9457 9.29842 18.4376 8.65649C19.1808 8.33666 19.826 7.94145 20.3012 7.47365C20.7712 7.01092 21.1515 6.39616 21.1515 5.66564H20.1515H19.1515C19.1515 5.66996 19.1475 5.8029 18.8981 6.04838C18.6539 6.2888 18.2444 6.5623 17.6471 6.81934C16.4576 7.33113 14.685 7.70792 12.5003 7.70792V8.70792ZM20.1515 5.66564H21.1515C21.1515 4.93498 20.771 4.32019 20.3009 3.85753C19.8256 3.38978 19.1804 2.99459 18.437 2.67478C16.945 2.03287 14.8922 1.62336 12.5003 1.62336V2.62336V3.62336C14.6843 3.62336 16.457 4.00015 17.6466 4.51196C18.2441 4.76902 18.6537 5.04254 18.898 5.283C19.1475 5.52854 19.1515 5.66146 19.1515 5.66564H20.1515Z" fill="#B5BEC8" mask="url(#path-1-inside-1_9959_1228)"/>
<mask id="path-3-inside-2_9959_1228" fill="white">
<path d="M12.5005 12.7417C7.76252 12.7417 4.05176 11.0466 4.05176 8.88376C4.05176 8.65836 4.23041 8.47595 4.45116 8.47595C4.67192 8.47595 4.85057 8.65836 4.85057 8.88376C4.85057 10.3534 7.92458 11.926 12.5018 11.926C17.079 11.926 20.153 10.3534 20.153 8.88376C20.153 8.65836 20.3316 8.47595 20.5524 8.47595C20.7732 8.47595 20.9518 8.65836 20.9518 8.88376C20.9518 11.0466 17.241 12.7417 12.5031 12.7417H12.5005Z"/>
</mask>
<path d="M12.5005 12.7417V11.7417C10.2366 11.7417 8.27355 11.3346 6.9148 10.7141C5.4788 10.0583 5.05176 9.34367 5.05176 8.88376H4.05176H3.05176C3.05176 10.5867 4.48009 11.8009 6.08398 12.5334C7.7651 13.3011 10.0264 13.7417 12.5005 13.7417V12.7417ZM4.05176 8.88376H5.05176C5.05176 9.19091 4.80222 9.47595 4.45116 9.47595V8.47595V7.47595C3.65859 7.47595 3.05176 8.12581 3.05176 8.88376H4.05176ZM4.45116 8.47595V9.47595C4.1001 9.47595 3.85057 9.19091 3.85057 8.88376H4.85057H5.85057C5.85057 8.12581 5.24373 7.47595 4.45116 7.47595V8.47595ZM4.85057 8.88376H3.85057C3.85057 9.61428 4.23081 10.229 4.70086 10.6918C5.17606 11.1596 5.82119 11.5548 6.56447 11.8746C8.05636 12.5165 10.1093 12.926 12.5018 12.926V11.926V10.926C10.3171 10.926 8.54439 10.5492 7.35497 10.0375C6.7576 9.78042 6.34815 9.50692 6.10394 9.2665C5.85457 9.02102 5.85057 8.88808 5.85057 8.88376H4.85057ZM12.5018 11.926V12.926C14.8943 12.926 16.9472 12.5165 18.4391 11.8746C19.1824 11.5548 19.8275 11.1596 20.3027 10.6918C20.7727 10.229 21.153 9.61428 21.153 8.88376H20.153H19.153C19.153 8.88808 19.149 9.02102 18.8996 9.2665C18.6554 9.50692 18.246 9.78042 17.6486 10.0375C16.4592 10.5492 14.6865 10.926 12.5018 10.926V11.926ZM20.153 8.88376H21.153C21.153 9.19091 20.9035 9.47595 20.5524 9.47595V8.47595V7.47595C19.7598 7.47595 19.153 8.12581 19.153 8.88376H20.153ZM20.5524 8.47595V9.47595C20.2013 9.47595 19.9518 9.19091 19.9518 8.88376H20.9518H21.9518C21.9518 8.12581 21.345 7.47595 20.5524 7.47595V8.47595ZM20.9518 8.88376H19.9518C19.9518 9.34367 19.5248 10.0583 18.0888 10.7141C16.73 11.3346 14.7669 11.7417 12.5031 11.7417V12.7417V13.7417C14.9772 13.7417 17.2385 13.3011 18.9196 12.5334C20.5235 11.8009 21.9518 10.5867 21.9518 8.88376H20.9518ZM12.5031 12.7417V11.7417H12.5005V12.7417V13.7417H12.5031V12.7417Z" fill="#B5BEC8" mask="url(#path-3-inside-2_9959_1228)"/>
<mask id="path-5-inside-3_9959_1228" fill="white">
<path d="M12.5005 15.7293C7.76252 15.7293 4.05176 14.0343 4.05176 11.8714C4.05176 11.646 4.23041 11.4636 4.45116 11.4636C4.67192 11.4636 4.85057 11.646 4.85057 11.8714C4.85057 13.3411 7.92458 14.9137 12.5018 14.9137C17.079 14.9137 20.153 13.3411 20.153 11.8714C20.153 11.646 20.3316 11.4636 20.5524 11.4636C20.7732 11.4636 20.9518 11.646 20.9518 11.8714C20.9518 14.0343 17.241 15.7293 12.5031 15.7293H12.5005Z"/>
</mask>
<path d="M12.5005 15.7293V14.7293C10.2366 14.7293 8.27355 14.3223 6.9148 13.7018C5.4788 13.046 5.05176 12.3313 5.05176 11.8714H4.05176H3.05176C3.05176 13.5743 4.48009 14.7886 6.08398 15.5211C7.7651 16.2888 10.0264 16.7293 12.5005 16.7293V15.7293ZM4.05176 11.8714H5.05176C5.05176 12.1786 4.80222 12.4636 4.45116 12.4636V11.4636V10.4636C3.65859 10.4636 3.05176 11.1135 3.05176 11.8714H4.05176ZM4.45116 11.4636V12.4636C4.10011 12.4636 3.85057 12.1786 3.85057 11.8714H4.85057H5.85057C5.85057 11.1135 5.24373 10.4636 4.45116 10.4636V11.4636ZM4.85057 11.8714H3.85057C3.85057 12.602 4.23081 13.2167 4.70086 13.6794C5.17606 14.1472 5.82119 14.5425 6.56447 14.8623C8.05636 15.5042 10.1093 15.9137 12.5018 15.9137V14.9137V13.9137C10.3171 13.9137 8.54439 13.5369 7.35497 13.0251C6.7576 12.7681 6.34815 12.4946 6.10394 12.2542C5.85457 12.0087 5.85057 11.8757 5.85057 11.8714H4.85057ZM12.5018 14.9137V15.9137C14.8943 15.9137 16.9472 15.5042 18.4391 14.8623C19.1824 14.5425 19.8275 14.1472 20.3027 13.6794C20.7727 13.2167 21.153 12.602 21.153 11.8714H20.153H19.153C19.153 11.8757 19.149 12.0087 18.8996 12.2542C18.6554 12.4946 18.246 12.7681 17.6486 13.0251C16.4592 13.5369 14.6865 13.9137 12.5018 13.9137V14.9137ZM20.153 11.8714H21.153C21.153 12.1786 20.9034 12.4636 20.5524 12.4636V11.4636V10.4636C19.7598 10.4636 19.153 11.1135 19.153 11.8714H20.153ZM20.5524 11.4636V12.4636C20.2013 12.4636 19.9518 12.1786 19.9518 11.8714H20.9518H21.9518C21.9518 11.1135 21.345 10.4636 20.5524 10.4636V11.4636ZM20.9518 11.8714H19.9518C19.9518 12.3313 19.5248 13.046 18.0888 13.7018C16.73 14.3223 14.7669 14.7293 12.5031 14.7293V15.7293V16.7293C14.9772 16.7293 17.2385 16.2888 18.9196 15.5211C20.5235 14.7886 21.9518 13.5743 21.9518 11.8714H20.9518ZM12.5031 15.7293V14.7293H12.5005V15.7293V16.7293H12.5031V15.7293Z" fill="#B5BEC8" mask="url(#path-5-inside-3_9959_1228)"/>
<mask id="path-7-inside-4_9959_1228" fill="white">
<path d="M12.5005 18.6361C7.76252 18.6361 4.05176 16.941 4.05176 14.7782C4.05176 14.5528 4.23041 14.3704 4.45116 14.3704C4.67192 14.3704 4.85057 14.5528 4.85057 14.7782C4.85057 16.2478 7.92458 17.8205 12.5018 17.8205C17.079 17.8205 20.153 16.2478 20.153 14.7782C20.153 14.5528 20.3316 14.3704 20.5524 14.3704C20.7732 14.3704 20.9518 14.5528 20.9518 14.7782C20.9518 16.941 17.241 18.6361 12.5031 18.6361H12.5005Z"/>
</mask>
<path d="M12.5005 18.6361V17.6361C10.2366 17.6361 8.27355 17.2291 6.9148 16.6085C5.4788 15.9528 5.05176 15.2381 5.05176 14.7782H4.05176H3.05176C3.05176 16.4811 4.48009 17.6954 6.08398 18.4278C7.7651 19.1955 10.0264 19.6361 12.5005 19.6361V18.6361ZM4.05176 14.7782H5.05176C5.05176 15.0853 4.80222 15.3704 4.45116 15.3704V14.3704V13.3704C3.65859 13.3704 3.05176 14.0202 3.05176 14.7782H4.05176ZM4.45116 14.3704V15.3704C4.1001 15.3704 3.85057 15.0853 3.85057 14.7782H4.85057H5.85057C5.85057 14.0202 5.24374 13.3704 4.45116 13.3704V14.3704ZM4.85057 14.7782H3.85057C3.85057 15.5087 4.23081 16.1235 4.70086 16.5862C5.17606 17.054 5.82119 17.4492 6.56447 17.769C8.05636 18.411 10.1093 18.8205 12.5018 18.8205V17.8205V16.8205C10.3171 16.8205 8.54439 16.4437 7.35497 15.9319C6.7576 15.6748 6.34815 15.4013 6.10394 15.1609C5.85457 14.9154 5.85057 14.7825 5.85057 14.7782H4.85057ZM12.5018 17.8205V18.8205C14.8943 18.8205 16.9472 18.411 18.4391 17.769C19.1824 17.4492 19.8275 17.054 20.3027 16.5862C20.7727 16.1235 21.153 15.5087 21.153 14.7782H20.153H19.153C19.153 14.7825 19.149 14.9154 18.8996 15.1609C18.6554 15.4013 18.246 15.6748 17.6486 15.9319C16.4592 16.4437 14.6865 16.8205 12.5018 16.8205V17.8205ZM20.153 14.7782H21.153C21.153 15.0853 20.9035 15.3704 20.5524 15.3704V14.3704V13.3704C19.7598 13.3704 19.153 14.0202 19.153 14.7782H20.153ZM20.5524 14.3704V15.3704C20.2013 15.3704 19.9518 15.0853 19.9518 14.7782H20.9518H21.9518C21.9518 14.0202 21.345 13.3704 20.5524 13.3704V14.3704ZM20.9518 14.7782H19.9518C19.9518 15.2381 19.5248 15.9528 18.0888 16.6085C16.73 17.2291 14.7669 17.6361 12.5031 17.6361V18.6361V19.6361C14.9772 19.6361 17.2385 19.1955 18.9196 18.4278C20.5235 17.6954 21.9518 16.4811 21.9518 14.7782H20.9518ZM12.5031 18.6361V17.6361H12.5005V18.6361V19.6361H12.5031V18.6361Z" fill="#B5BEC8" mask="url(#path-7-inside-4_9959_1228)"/>
<mask id="path-9-inside-5_9959_1228" fill="white">
<path d="M4.44994 15.6003C4.22918 15.6003 4.05054 15.4179 4.05054 15.1925V5.66562C4.05054 5.44022 4.22918 5.25781 4.44994 5.25781C4.6707 5.25781 4.84935 5.44022 4.84935 5.66562V15.1925C4.84935 15.4179 4.6707 15.6003 4.44994 15.6003Z"/>
</mask>
<path d="M4.44994 15.6003V14.6003C4.801 14.6003 5.05054 14.8853 5.05054 15.1925H4.05054H3.05054C3.05054 15.9504 3.65737 16.6003 4.44994 16.6003V15.6003ZM4.05054 15.1925H5.05054V5.66562H4.05054H3.05054V15.1925H4.05054ZM4.05054 5.66562H5.05054C5.05054 5.97277 4.801 6.25781 4.44994 6.25781V5.25781V4.25781C3.65737 4.25781 3.05054 4.90767 3.05054 5.66562H4.05054ZM4.44994 5.25781V6.25781C4.09888 6.25781 3.84935 5.97277 3.84935 5.66562H4.84935H5.84935C5.84935 4.90767 5.24251 4.25781 4.44994 4.25781V5.25781ZM4.84935 5.66562H3.84935V15.1925H4.84935H5.84935V5.66562H4.84935ZM4.84935 15.1925H3.84935C3.84935 14.8853 4.09888 14.6003 4.44994 14.6003V15.6003V16.6003C5.24252 16.6003 5.84935 15.9504 5.84935 15.1925H4.84935Z" fill="#B5BEC8" mask="url(#path-9-inside-5_9959_1228)"/>
<mask id="path-11-inside-6_9959_1228" fill="white">
<path d="M20.5498 15.1859C20.329 15.1859 20.1504 15.0035 20.1504 14.7781V5.66562C20.1504 5.44022 20.329 5.25781 20.5498 5.25781C20.7706 5.25781 20.9492 5.44022 20.9492 5.66562V14.7781C20.9492 15.0035 20.7706 15.1859 20.5498 15.1859Z"/>
</mask>
<path d="M20.5498 15.1859V14.1859C20.9009 14.1859 21.1504 14.471 21.1504 14.7781H20.1504H19.1504C19.1504 15.5361 19.7572 16.1859 20.5498 16.1859V15.1859ZM20.1504 14.7781H21.1504V5.66562H20.1504H19.1504V14.7781H20.1504ZM20.1504 5.66562H21.1504C21.1504 5.97276 20.9009 6.25781 20.5498 6.25781V5.25781V4.25781C19.7572 4.25781 19.1504 4.90768 19.1504 5.66562H20.1504ZM20.5498 5.25781V6.25781C20.1987 6.25781 19.9492 5.97277 19.9492 5.66562H20.9492H21.9492C21.9492 4.90767 21.3424 4.25781 20.5498 4.25781V5.25781ZM20.9492 5.66562H19.9492V14.7781H20.9492H21.9492V5.66562H20.9492ZM20.9492 14.7781H19.9492C19.9492 14.471 20.1987 14.1859 20.5498 14.1859V15.1859V16.1859C21.3424 16.1859 21.9492 15.5361 21.9492 14.7781H20.9492Z" fill="#B5BEC8" mask="url(#path-11-inside-6_9959_1228)"/>
<mask id="path-13-inside-7_9959_1228" fill="white">
<path d="M22.6019 21.1923H2.3994C2.17865 21.1923 2 21.0099 2 20.7845C2 20.5591 2.17865 20.3767 2.3994 20.3767H22.6019C22.8226 20.3767 23.0013 20.5591 23.0013 20.7845C23.0013 21.0099 22.8226 21.1923 22.6019 21.1923Z"/>
</mask>
<path d="M22.6019 21.1923V20.1923H2.3994V21.1923V22.1923H22.6019V21.1923ZM2.3994 21.1923V20.1923C2.75046 20.1923 3 20.4774 3 20.7845H2H1C1 21.5425 1.60683 22.1923 2.3994 22.1923V21.1923ZM2 20.7845H3C3 21.0917 2.75046 21.3767 2.3994 21.3767V20.3767V19.3767C1.60684 19.3767 1 20.0266 1 20.7845H2ZM2.3994 20.3767V21.3767H22.6019V20.3767V19.3767H2.3994V20.3767ZM22.6019 20.3767V21.3767C22.2508 21.3767 22.0013 21.0917 22.0013 20.7845H23.0013H24.0013C24.0013 20.0266 23.3944 19.3767 22.6019 19.3767V20.3767ZM23.0013 20.7845H22.0013C22.0013 20.4774 22.2508 20.1923 22.6019 20.1923V21.1923V22.1923C23.3944 22.1923 24.0013 21.5425 24.0013 20.7845H23.0013Z" fill="#B5BEC8" mask="url(#path-13-inside-7_9959_1228)"/>
<mask id="path-15-inside-8_9959_1228" fill="white">
<path d="M12.5007 21.1924C12.28 21.1924 12.1013 21.0099 12.1013 20.7845V18.2282C12.1013 18.0028 12.28 17.8204 12.5007 17.8204C12.7215 17.8204 12.9001 18.0028 12.9001 18.2282V20.7845C12.9001 21.0099 12.7215 21.1924 12.5007 21.1924Z"/>
</mask>
<path d="M12.5007 21.1924V20.1924C12.8518 20.1924 13.1013 20.4774 13.1013 20.7845H12.1013H11.1013C11.1013 21.5425 11.7081 22.1924 12.5007 22.1924V21.1924ZM12.1013 20.7845H13.1013V18.2282H12.1013H11.1013V20.7845H12.1013ZM12.1013 18.2282H13.1013C13.1013 18.5354 12.8518 18.8204 12.5007 18.8204V17.8204V16.8204C11.7082 16.8204 11.1013 17.4703 11.1013 18.2282H12.1013ZM12.5007 17.8204V18.8204C12.1497 18.8204 11.9001 18.5354 11.9001 18.2282H12.9001H13.9001C13.9001 17.4703 13.2933 16.8204 12.5007 16.8204V17.8204ZM12.9001 18.2282H11.9001V20.7845H12.9001H13.9001V18.2282H12.9001ZM12.9001 20.7845H11.9001C11.9001 20.4774 12.1497 20.1924 12.5007 20.1924V21.1924V22.1924C13.2933 22.1924 13.9001 21.5425 13.9001 20.7845H12.9001Z" fill="#B5BEC8" mask="url(#path-15-inside-8_9959_1228)"/>
</g>
<defs>
<clipPath id="clip0_9959_1228">
<rect width="21" height="19.3846" fill="white" transform="translate(2 1.80774)"/>
</clipPath>
</defs>
</svg>
