<svg width="36" height="30" viewBox="0 0 36 30" fill="none" xmlns="http://www.w3.org/2000/svg">
<path d="M18.6499 0.934937H30.5675C31.4564 0.934937 32.1839 1.65375 32.1839 2.53202V17.3378" stroke="#0C1B33" stroke-linecap="round" stroke-linejoin="round"/>
<path d="M5.04688 17.3378V13.066" stroke="#0C1B33" stroke-linecap="round" stroke-linejoin="round"/>
<path d="M35.6353 26.4845H1.81396L5.04682 17.3379H31.8636L35.6353 26.4845Z" stroke="#0C1B33" stroke-linecap="round" stroke-linejoin="round"/>
<path d="M35.6745 26.4845C35.6745 28.241 34.2195 29.6787 32.4417 29.6787H5.08735C3.30954 29.6787 1.85449 28.241 1.85449 26.4845" stroke="#0C1B33" stroke-linecap="round" stroke-linejoin="round"/>
<path d="M13.147 26.3661L13.8979 23.3121H23.983L24.734 26.3661" stroke="#0C1B33" stroke-linecap="round" stroke-linejoin="round"/>
<path d="M7.48975 19.3413H30" stroke="#0C1B33" stroke-linecap="round" stroke-linejoin="round"/>
<path d="M6.31348 0.497681V4.72057" stroke="#0C1B33" stroke-linecap="round" stroke-linejoin="round"/>
<path d="M14.6494 0.497681V4.72057" stroke="#0C1B33" stroke-linecap="round" stroke-linejoin="round"/>
<path d="M10.418 0.321533H10.2227C9.56362 0.321533 9.0293 0.849465 9.0293 1.5007V3.7163C9.0293 4.36754 9.56362 4.89547 10.2227 4.89547H10.418C11.0771 4.89547 11.6114 4.36754 11.6114 3.7163V1.5007C11.6114 0.849465 11.0771 0.321533 10.418 0.321533Z" stroke="#0C1B33" stroke-linecap="round" stroke-linejoin="round"/>
<path d="M7.85693 6.61987H7.66171C7.00259 6.61987 6.46826 7.1478 6.46826 7.79904V10.0146C6.46826 10.6659 7.00259 11.1938 7.66171 11.1938H7.85693C8.51606 11.1938 9.05038 10.6659 9.05038 10.0146V7.79904C9.05038 7.1478 8.51606 6.61987 7.85693 6.61987Z" stroke="#0C1B33" stroke-linecap="round" stroke-linejoin="round"/>
<path d="M3.61914 11.0189V6.79602" stroke="#0C1B33" stroke-linecap="round" stroke-linejoin="round"/>
<path d="M0.325195 11.0189V6.79602" stroke="#0C1B33" stroke-linecap="round" stroke-linejoin="round"/>
<path d="M13.3179 6.54272H13.1226C12.4635 6.54272 11.9292 7.07066 11.9292 7.72189V9.9375C11.9292 10.5887 12.4635 11.1167 13.1226 11.1167H13.3179C13.977 11.1167 14.5113 10.5887 14.5113 9.9375V7.72189C14.5113 7.07066 13.977 6.54272 13.3179 6.54272Z" stroke="#0C1B33" stroke-linecap="round" stroke-linejoin="round"/>
<path d="M17.3604 6.71887V10.9418" stroke="#0C1B33" stroke-linecap="round" stroke-linejoin="round"/>
<path d="M20.6543 6.71887V10.9418" stroke="#0C1B33" stroke-linecap="round" stroke-linejoin="round"/>
<path d="M28.9902 6.71887V10.9418" stroke="#0C1B33" stroke-linecap="round" stroke-linejoin="round"/>
<path d="M24.7588 6.54272H24.5636C23.9044 6.54272 23.3701 7.07066 23.3701 7.72189V9.9375C23.3701 10.5887 23.9044 11.1167 24.5636 11.1167H24.7588C25.4179 11.1167 25.9522 10.5887 25.9522 9.9375V7.72189C25.9522 7.07066 25.4179 6.54272 24.7588 6.54272Z" stroke="#0C1B33" stroke-linecap="round" stroke-linejoin="round"/>
</svg>
