<svg width="24" height="24" viewBox="0 0 24 24" fill="none" xmlns="http://www.w3.org/2000/svg">
<path d="M12.0115 19.5363V17.5024" stroke="#B5BEC8" stroke-miterlimit="10" stroke-linecap="round"/>
<path d="M3 20.6221H9.4386" stroke="#B5BEC8" stroke-miterlimit="10" stroke-linecap="round"/>
<path d="M21.0228 20.6221H14.5842" stroke="#B5BEC8" stroke-miterlimit="10" stroke-linecap="round"/>
<path d="M19.333 3H4.78156C4.67231 3 4.58374 3.08788 4.58374 3.19629V15.8278C4.58374 15.9362 4.67231 16.0241 4.78156 16.0241H19.333C19.4422 16.0241 19.5308 15.9362 19.5308 15.8278V3.19629C19.5308 3.08788 19.4422 3 19.333 3Z" stroke="#B5BEC8" stroke-miterlimit="10" stroke-linecap="round"/>
<path d="M6.31714 7.3418H17.7493" stroke="#B5BEC8" stroke-miterlimit="10" stroke-linecap="round"/>
<path d="M6.31714 11.6835H17.7493" stroke="#B5BEC8" stroke-miterlimit="10" stroke-linecap="round"/>
<path d="M17.7491 5.17151H16.5566" stroke="#B5BEC8" stroke-miterlimit="10" stroke-linecap="round"/>
<path d="M17.7491 9.51208H16.5566" stroke="#B5BEC8" stroke-miterlimit="10" stroke-linecap="round"/>
<path d="M17.7491 13.8539H16.5566" stroke="#B5BEC8" stroke-miterlimit="10" stroke-linecap="round"/>
<path d="M13.0479 20.9717C13.2417 20.4037 12.9349 19.7874 12.3626 19.5951C11.7902 19.4027 11.1691 19.7072 10.9752 20.2751C10.7814 20.8431 11.0882 21.4594 11.6606 21.6517C12.2329 21.8441 12.8541 21.5396 13.0479 20.9717Z" stroke="#B5BEC8" stroke-miterlimit="10" stroke-linecap="round"/>
</svg>
