<svg width="36" height="36" viewBox="0 0 36 36" fill="none" xmlns="http://www.w3.org/2000/svg">
<path d="M18.0093 28.4871L8.2207 23.9392V12.0225L18.0093 16.5704V28.4871Z" stroke="#4D4D4D" stroke-linecap="round" stroke-linejoin="round"/>
<path d="M17.9561 28.4871L27.7435 23.9392V12.0225L17.9561 16.5704V28.4871Z" stroke="#4D4D4D" stroke-linecap="round" stroke-linejoin="round"/>
<path d="M8.2207 12.0225L17.8849 7.26416L27.3888 12.0225" stroke="#4D4D4D" stroke-linecap="round" stroke-linejoin="round"/>
<path d="M18 3.64478V6.57252" stroke="#4D4D4D" stroke-linecap="round" stroke-linejoin="round"/>
<path d="M17.9999 3.29615C18.8299 3.29615 19.5027 2.62331 19.5027 1.79334C19.5027 0.963358 18.8299 0.290527 17.9999 0.290527C17.1699 0.290527 16.4971 0.963358 16.4971 1.79334C16.4971 2.62331 17.1699 3.29615 17.9999 3.29615Z" stroke="#4D4D4D" stroke-linecap="round" stroke-linejoin="round"/>
<path d="M18 32.3539V29.4261" stroke="#4D4D4D" stroke-linecap="round" stroke-linejoin="round"/>
<path d="M17.9999 35.7081C18.8299 35.7081 19.5027 35.0353 19.5027 34.2053C19.5027 33.3753 18.8299 32.7025 17.9999 32.7025C17.1699 32.7025 16.4971 33.3753 16.4971 34.2053C16.4971 35.0353 17.1699 35.7081 17.9999 35.7081Z" stroke="#4D4D4D" stroke-linecap="round" stroke-linejoin="round"/>
<path d="M3.64502 18H6.57277" stroke="#4D4D4D" stroke-linecap="round" stroke-linejoin="round"/>
<path d="M1.79334 19.5028C2.62331 19.5028 3.29615 18.83 3.29615 18C3.29615 17.17 2.62331 16.4972 1.79334 16.4972C0.963358 16.4972 0.290527 17.17 0.290527 18C0.290527 18.83 0.963358 19.5028 1.79334 19.5028Z" stroke="#4D4D4D" stroke-linecap="round" stroke-linejoin="round"/>
<path d="M32.354 18H29.4263" stroke="#4D4D4D" stroke-linecap="round" stroke-linejoin="round"/>
<path d="M34.2054 19.5028C35.0354 19.5028 35.7083 18.83 35.7083 18C35.7083 17.17 35.0354 16.4972 34.2054 16.4972C33.3755 16.4972 32.7026 17.17 32.7026 18C32.7026 18.83 33.3755 19.5028 34.2054 19.5028Z" stroke="#4D4D4D" stroke-linecap="round" stroke-linejoin="round"/>
<path d="M7.98828 7.91272L10.0594 9.98271" stroke="#4D4D4D" stroke-linecap="round" stroke-linejoin="round"/>
<path d="M6.67957 8.10681C7.50955 8.10681 8.18238 7.43398 8.18238 6.60401C8.18238 5.77403 7.50955 5.1012 6.67957 5.1012C5.84959 5.1012 5.17676 5.77403 5.17676 6.60401C5.17676 7.43398 5.84959 8.10681 6.67957 8.10681Z" stroke="#4D4D4D" stroke-linecap="round" stroke-linejoin="round"/>
<path d="M28.2894 28.2128L26.2183 26.1428" stroke="#4D4D4D" stroke-linecap="round" stroke-linejoin="round"/>
<path d="M29.598 31.0255C30.428 31.0255 31.1008 30.3527 31.1008 29.5227C31.1008 28.6927 30.428 28.0199 29.598 28.0199C28.768 28.0199 28.0952 28.6927 28.0952 29.5227C28.0952 30.3527 28.768 31.0255 29.598 31.0255Z" stroke="#4D4D4D" stroke-linecap="round" stroke-linejoin="round"/>
<path d="M7.98828 28.2128L10.0594 26.1428" stroke="#4D4D4D" stroke-linecap="round" stroke-linejoin="round"/>
<path d="M6.67957 31.0255C7.50955 31.0255 8.18238 30.3527 8.18238 29.5227C8.18238 28.6927 7.50955 28.0199 6.67957 28.0199C5.84959 28.0199 5.17676 28.6927 5.17676 29.5227C5.17676 30.3527 5.84959 31.0255 6.67957 31.0255Z" stroke="#4D4D4D" stroke-linecap="round" stroke-linejoin="round"/>
<path d="M28.2894 7.91272L26.2183 9.98271" stroke="#4D4D4D" stroke-linecap="round" stroke-linejoin="round"/>
<path d="M29.598 8.10681C30.428 8.10681 31.1008 7.43398 31.1008 6.60401C31.1008 5.77403 30.428 5.1012 29.598 5.1012C28.768 5.1012 28.0952 5.77403 28.0952 6.60401C28.0952 7.43398 28.768 8.10681 29.598 8.10681Z" stroke="#4D4D4D" stroke-linecap="round" stroke-linejoin="round"/>
</svg>
