<svg width="24" height="24" viewBox="0 0 24 24" fill="none" xmlns="http://www.w3.org/2000/svg">
<path d="M20.3507 4.65547C20.3507 6.12155 19.1613 7.31095 17.6953 7.31095C16.2292 7.31095 15.0398 6.12155 15.0398 4.65547C15.0398 3.1894 16.2292 2 17.6953 2C19.1613 2 20.3507 3.1894 20.3507 4.65547Z" stroke="#B5BEC8" stroke-miterlimit="10" stroke-linecap="round"/>
<path d="M9.31095 11.7126C9.31095 13.1787 8.12155 14.3681 6.65547 14.3681C5.1894 14.3681 4 13.1787 4 11.7126C4 10.2465 5.1894 9.05713 6.65547 9.05713C8.12155 9.05713 9.31095 10.2465 9.31095 11.7126Z" stroke="#B5BEC8" stroke-miterlimit="10" stroke-linecap="round"/>
<path d="M20.3759 18.7447C20.3759 20.2108 19.1865 21.4002 17.7204 21.4002C16.2543 21.4002 15.0649 20.2108 15.0649 18.7447C15.0649 17.2786 16.2543 16.0892 17.7204 16.0892C19.1865 16.0892 20.3759 17.2786 20.3759 18.7447Z" stroke="#B5BEC8" stroke-miterlimit="10" stroke-linecap="round"/>
<path d="M10.8047 9.05721L15.4544 6.08142" stroke="#B5BEC8" stroke-miterlimit="10" stroke-linecap="round"/>
<path d="M8.89771 13.1362L13.7379 16.213" stroke="#B5BEC8" stroke-miterlimit="10" stroke-linecap="round"/>
</svg>
