<svg width="36" height="36" viewBox="0 0 36 36" fill="none" xmlns="http://www.w3.org/2000/svg">
<g clip-path="url(#clip0_9870_3570)">
<path d="M17.4994 4.01974C18.5294 4.01974 19.3644 3.18705 19.3644 2.15986C19.3644 1.13268 18.5294 0.299988 17.4994 0.299988C16.4693 0.299988 15.6343 1.13268 15.6343 2.15986C15.6343 3.18705 16.4693 4.01974 17.4994 4.01974Z" stroke="#0C1B33" stroke-linecap="round" stroke-linejoin="round"/>
<path d="M17.4994 35.7C18.5294 35.7 19.3644 34.8673 19.3644 33.8402C19.3644 32.813 18.5294 31.9803 17.4994 31.9803C16.4693 31.9803 15.6343 32.813 15.6343 33.8402C15.6343 34.8673 16.4693 35.7 17.4994 35.7Z" stroke="#0C1B33" stroke-linecap="round" stroke-linejoin="round"/>
<path d="M17.4995 4.01971V32.0366" stroke="#0C1B33" stroke-linecap="round" stroke-linejoin="round"/>
<path d="M4.25131 11.1221C5.28136 11.1221 6.11639 10.2894 6.11639 9.26222C6.11639 8.23504 5.28136 7.40234 4.25131 7.40234C3.22125 7.40234 2.38623 8.23504 2.38623 9.26222C2.38623 10.2894 3.22125 11.1221 4.25131 11.1221Z" stroke="#0C1B33" stroke-linecap="round" stroke-linejoin="round"/>
<path d="M30.7489 28.5989C31.7789 28.5989 32.6139 27.7662 32.6139 26.739C32.6139 25.7118 31.7789 24.8792 30.7489 24.8792C29.7188 24.8792 28.8838 25.7118 28.8838 26.739C28.8838 27.7662 29.7188 28.5989 30.7489 28.5989Z" stroke="#0C1B33" stroke-linecap="round" stroke-linejoin="round"/>
<path d="M5.80713 10.2881L29.3408 25.5511" stroke="#0C1B33" stroke-linecap="round" stroke-linejoin="round"/>
<path d="M30.8329 11.2505C31.8629 11.2505 32.6979 10.4178 32.6979 9.39058C32.6979 8.3634 31.8629 7.5307 30.8329 7.5307C29.8028 7.5307 28.9678 8.3634 28.9678 9.39058C28.9678 10.4178 29.8028 11.2505 30.8329 11.2505Z" stroke="#0C1B33" stroke-linecap="round" stroke-linejoin="round"/>
<path d="M4.16586 28.4693C5.19591 28.4693 6.03094 27.6366 6.03094 26.6094C6.03094 25.5823 5.19591 24.7496 4.16586 24.7496C3.13581 24.7496 2.30078 25.5823 2.30078 26.6094C2.30078 27.6366 3.13581 28.4693 4.16586 28.4693Z" stroke="#0C1B33" stroke-linecap="round" stroke-linejoin="round"/>
<path d="M29.2673 10.4021L5.75293 25.5187" stroke="#0C1B33" stroke-linecap="round" stroke-linejoin="round"/>
<path d="M4.26074 24.6824V11.4041" stroke="#0C1B33" stroke-linecap="round" stroke-linejoin="round"/>
<path d="M30.7773 24.9116V11.6332" stroke="#0C1B33" stroke-linecap="round" stroke-linejoin="round"/>
<path d="M19.3618 32.9846L29.0265 27.7446" stroke="#0C1B33" stroke-linecap="round" stroke-linejoin="round"/>
<path d="M6.08643 8.29987L15.7511 3.05981" stroke="#0C1B33" stroke-linecap="round" stroke-linejoin="round"/>
<path d="M29.2276 8.25066L19.356 3.0238" stroke="#0C1B33" stroke-linecap="round" stroke-linejoin="round"/>
<path d="M15.6246 33.0194L5.75293 27.7925" stroke="#0C1B33" stroke-linecap="round" stroke-linejoin="round"/>
</g>
<defs>
<clipPath id="clip0_9870_3570">
<rect width="31" height="36" fill="white" transform="translate(2)"/>
</clipPath>
</defs>
</svg>
