<svg width="36" height="28" viewBox="0 0 36 28" fill="none" xmlns="http://www.w3.org/2000/svg">
<g clip-path="url(#clip0_9870_3679)">
<path d="M19.5181 0.299255L24.1826 0.304043L24.8026 3.02229C25.798 3.28442 26.7413 3.67582 27.6108 4.17614L29.9976 2.69194L33.2925 5.95599L31.7861 8.31157C32.2911 9.17217 32.6846 10.1046 32.9486 11.0897L35.6974 11.7085L35.6926 16.3203L32.9438 16.9331C32.6786 17.917 32.2826 18.8494 31.7764 19.7088L33.278 22.068L29.9758 25.3249L27.5914 23.8359C26.7208 24.335 25.7774 24.724 24.7808 24.9837L24.1548 27.7008L19.4902 27.696M20.0969 18.5562C20.6951 18.8075 21.3539 18.9464 22.0441 18.9464C24.8087 18.9488 27.0513 16.7368 27.0538 14.0042C27.0562 11.2716 24.8184 9.05487 22.0538 9.05247C21.1964 9.05247 20.3888 9.26433 19.6828 9.63897" stroke="#0C1B33" stroke-linecap="round" stroke-linejoin="round"/>
<path d="M15.2661 11.8796V26.9359" stroke="#0C1B33" stroke-linecap="round" stroke-linejoin="round"/>
<path d="M15.2661 1.06409V5.99548" stroke="#0C1B33" stroke-linecap="round" stroke-linejoin="round"/>
<path d="M15.649 6.23724H14.8837C14.2444 6.23724 13.7261 6.74955 13.7261 7.38152V10.5666C13.7261 11.1985 14.2444 11.7108 14.8837 11.7108H15.649C16.2884 11.7108 16.8067 11.1985 16.8067 10.5666V7.38152C16.8067 6.74955 16.2884 6.23724 15.649 6.23724Z" stroke="#0C1B33" stroke-linecap="round" stroke-linejoin="round"/>
<path d="M8.51758 18.6914V27.0808" stroke="#0C1B33" stroke-linecap="round" stroke-linejoin="round"/>
<path d="M8.51758 1.20892V12.2662" stroke="#0C1B33" stroke-linecap="round" stroke-linejoin="round"/>
<path d="M1.84326 16.4723V27.0808" stroke="#0C1B33" stroke-linecap="round" stroke-linejoin="round"/>
<path d="M1.84326 1.56439V10.9664" stroke="#0C1B33" stroke-linecap="round" stroke-linejoin="round"/>
<path d="M8.90051 12.508H8.1352C7.49584 12.508 6.97754 13.0203 6.97754 13.6523V17.5459C6.97754 18.1779 7.49584 18.6902 8.1352 18.6902H8.90051C9.53987 18.6902 10.0582 18.1779 10.0582 17.5459V13.6523C10.0582 13.0203 9.53987 12.508 8.90051 12.508Z" stroke="#0C1B33" stroke-linecap="round" stroke-linejoin="round"/>
<path d="M2.22571 11.2321H1.46039C0.821035 11.2321 0.302734 11.7444 0.302734 12.3763V15.2059C0.302734 15.8379 0.821035 16.3502 1.46039 16.3502H2.22571C2.86506 16.3502 3.38336 15.8379 3.38336 15.2059V12.3763C3.38336 11.7444 2.86506 11.2321 2.22571 11.2321Z" stroke="#0C1B33" stroke-linecap="round" stroke-linejoin="round"/>
</g>
<defs>
<clipPath id="clip0_9870_3679">
<rect width="36" height="28" fill="white"/>
</clipPath>
</defs>
</svg>
