<svg width="24" height="24" viewBox="0 0 24 24" fill="none" xmlns="http://www.w3.org/2000/svg">
<g clip-path="url(#clip0_9959_1206)">
<path d="M14.9554 21.8496C14.757 21.8496 14.5952 21.6831 14.5952 21.4765V16.7143C14.5952 16.5088 14.756 16.3412 14.9554 16.3412C15.1548 16.3412 15.3156 16.5077 15.3156 16.7143V21.4765C15.3156 21.682 15.1548 21.8496 14.9554 21.8496Z" stroke="#B5BEC8" stroke-width="0.4"/>
<path d="M14.9555 8.07364C13.7507 8.07364 12.7715 7.05913 12.7715 5.81099C12.7715 4.56286 13.7507 3.54834 14.9555 3.54834C16.1603 3.54834 17.1395 4.56286 17.1395 5.81099C17.1395 7.05913 16.1603 8.07364 14.9555 8.07364ZM14.9555 4.29354C14.1485 4.29354 13.4918 4.97385 13.4918 5.80991C13.4918 6.64597 14.1485 7.32628 14.9555 7.32628C15.7625 7.32628 16.4192 6.64597 16.4192 5.80991C16.4192 4.97385 15.7625 4.29354 14.9555 4.29354Z" stroke="#B5BEC8" stroke-width="0.4"/>
<path d="M14.9555 14.6874C13.7507 14.6874 12.7715 13.6729 12.7715 12.4248C12.7715 11.1766 13.7507 10.1621 14.9555 10.1621C16.1603 10.1621 17.1395 11.1766 17.1395 12.4248C17.1395 13.6729 16.1603 14.6874 14.9555 14.6874ZM14.9555 10.9073C14.1485 10.9073 13.4918 11.5876 13.4918 12.4237C13.4918 13.2597 14.1485 13.94 14.9555 13.94C15.7625 13.94 16.4192 13.2597 16.4192 12.4237C16.4192 11.5876 15.7625 10.9073 14.9555 10.9073Z" stroke="#B5BEC8" stroke-width="0.4"/>
<path d="M19.8746 8.62094C19.6762 8.62094 19.5144 8.45437 19.5144 8.24779V3.37314C19.5144 3.16764 19.6752 3 19.8746 3C20.074 3 20.2348 3.16656 20.2348 3.37314V8.24888C20.2348 8.45437 20.074 8.62202 19.8746 8.62202V8.62094Z" stroke="#B5BEC8" stroke-width="0.4"/>
<path d="M19.8746 15.1602C19.6762 15.1602 19.5144 14.9936 19.5144 14.787V10.0627C19.5144 9.85722 19.6752 9.68958 19.8746 9.68958C20.074 9.68958 20.2348 9.85614 20.2348 10.0627V14.787C20.2348 14.9925 20.074 15.1602 19.8746 15.1602Z" stroke="#B5BEC8" stroke-width="0.4"/>
<path d="M19.8747 21.4333C18.6699 21.4333 17.6907 20.4187 17.6907 19.1706C17.6907 17.9225 18.6699 16.908 19.8747 16.908C21.0795 16.908 22.0587 17.9225 22.0587 19.1706C22.0587 20.4187 21.0795 21.4333 19.8747 21.4333ZM19.8747 17.6542C19.0677 17.6542 18.411 18.3346 18.411 19.1706C18.411 20.0067 19.0677 20.687 19.8747 20.687C20.6817 20.687 21.3384 20.0067 21.3384 19.1706C21.3384 18.3346 20.6817 17.6542 19.8747 17.6542Z" stroke="#B5BEC8" stroke-width="0.4"/>
<path d="M4.12507 15.1601C3.92671 15.1601 3.76489 14.9935 3.76489 14.7869V10.0626C3.76489 9.8571 3.92567 9.68945 4.12507 9.68945C4.32447 9.68945 4.48524 9.85602 4.48524 10.0626V14.7869C4.48524 14.9924 4.32447 15.1601 4.12507 15.1601Z" stroke="#B5BEC8" stroke-width="0.4"/>
<path d="M4.12518 8.07364C2.92042 8.07364 1.94116 7.05805 1.94116 5.81099C1.94116 4.56394 2.92042 3.54834 4.12518 3.54834C5.32995 3.54834 6.30921 4.56286 6.30921 5.81099C6.30921 7.05913 5.32995 8.07364 4.12518 8.07364ZM4.12518 4.29354C3.31818 4.29354 2.66151 4.97385 2.66151 5.80991C2.66151 6.64597 3.31818 7.32628 4.12518 7.32628C4.93219 7.32628 5.58886 6.64597 5.58886 5.80991C5.58886 4.97385 4.93219 4.29354 4.12518 4.29354Z" stroke="#B5BEC8" stroke-width="0.4"/>
<path d="M4.12518 21.4333C2.92042 21.4333 1.94116 20.4187 1.94116 19.1706C1.94116 17.9225 2.92042 16.908 4.12518 16.908C5.32995 16.908 6.30921 17.9225 6.30921 19.1706C6.30921 20.4187 5.32995 21.4333 4.12518 21.4333ZM4.12518 17.6542C3.31818 17.6542 2.66151 18.3346 2.66151 19.1706C2.66151 20.0067 3.31818 20.687 4.12518 20.687C4.93219 20.687 5.58886 20.0067 5.58886 19.1706C5.58886 18.3346 4.93219 17.6542 4.12518 17.6542Z" stroke="#B5BEC8" stroke-width="0.4"/>
<path d="M8.90436 22C8.70601 22 8.54419 21.8334 8.54419 21.6268V16.7132C8.54419 16.5077 8.70496 16.3401 8.90436 16.3401C9.10377 16.3401 9.26454 16.5067 9.26454 16.7132V21.6268C9.26454 21.8323 9.10377 22 8.90436 22Z" stroke="#B5BEC8" stroke-width="0.4"/>
<path d="M8.90436 8.62094C8.70601 8.62094 8.54419 8.45437 8.54419 8.24779V3.37314C8.54419 3.16764 8.70496 3 8.90436 3C9.10377 3 9.26454 3.16656 9.26454 3.37314V8.24888C9.26454 8.45437 9.10377 8.62202 8.90436 8.62202V8.62094Z" stroke="#B5BEC8" stroke-width="0.4"/>
<path d="M8.90448 14.6875C7.69972 14.6875 6.72046 13.673 6.72046 12.4249C6.72046 11.1767 7.69972 10.1622 8.90448 10.1622C10.1092 10.1622 11.0885 11.1767 11.0885 12.4249C11.0885 13.673 10.1092 14.6875 8.90448 14.6875ZM8.90448 10.9074C8.09748 10.9074 7.44081 11.5877 7.44081 12.4238C7.44081 13.2599 8.09748 13.9402 8.90448 13.9402C9.71148 13.9402 10.3682 13.2599 10.3682 12.4238C10.3682 11.5877 9.71148 10.9074 8.90448 10.9074Z" stroke="#B5BEC8" stroke-width="0.4"/>
</g>
<defs>
<clipPath id="clip0_9959_1206">
<rect width="20.1176" height="19" fill="white" transform="translate(1.94116 3)"/>
</clipPath>
</defs>
</svg>
