<svg width="24" height="24" viewBox="0 0 24 24" fill="none" xmlns="http://www.w3.org/2000/svg">
<g clip-path="url(#clip0_9958_3993)">
<mask id="path-1-inside-1_9958_3993" fill="white">
<path d="M21.4387 5.42036H18.2363V3.51495C18.2363 2.77164 17.6349 2.16675 16.8959 2.16675H8.16307C7.42406 2.16675 6.82267 2.77164 6.82267 3.51495V5.42036H3.56014C2.69969 5.42036 2 6.12412 2 6.98958V19.2642C2 20.1296 2.69969 20.8334 3.56014 20.8334H21.4387C22.2991 20.8334 22.9988 20.1296 22.9988 19.2642V6.98958C22.9988 6.12412 22.2991 5.42036 21.4387 5.42036ZM7.67964 3.51495C7.67964 3.24741 7.89591 3.02872 8.16307 3.02872H16.8959C17.1619 3.02872 17.3793 3.24624 17.3793 3.51495V5.42036H7.67964V3.51495ZM22.143 19.2642C22.143 19.6539 21.8273 19.9714 21.4399 19.9714H3.56014C3.17271 19.9714 2.85698 19.6539 2.85698 19.2642V6.98958C2.85698 6.59989 3.17271 6.28233 3.56014 6.28233H21.4387C21.8261 6.28233 22.1419 6.59989 22.1419 6.98958V19.2642H22.143Z"/>
</mask>
<path d="M18.2363 5.42036H17.2363V6.42036H18.2363V5.42036ZM6.82267 5.42036V6.42036H7.82267V5.42036H6.82267ZM17.3793 5.42036V6.42036H18.3793V5.42036H17.3793ZM7.67964 5.42036H6.67964V6.42036H7.67964V5.42036ZM22.143 19.2642H23.143V18.2642H22.143V19.2642ZM22.1419 19.2642H21.1419V20.2642H22.1419V19.2642ZM21.4387 5.42036V4.42036H18.2363V5.42036V6.42036H21.4387V5.42036ZM18.2363 5.42036H19.2363V3.51495H18.2363H17.2363V5.42036H18.2363ZM18.2363 3.51495H19.2363C19.2363 2.22484 18.1927 1.16675 16.8959 1.16675V2.16675V3.16675C17.0772 3.16675 17.2363 3.31844 17.2363 3.51495H18.2363ZM16.8959 2.16675V1.16675H8.16307V2.16675V3.16675H16.8959V2.16675ZM8.16307 2.16675V1.16675C6.8663 1.16675 5.82267 2.22484 5.82267 3.51495H6.82267H7.82267C7.82267 3.31844 7.98181 3.16675 8.16307 3.16675V2.16675ZM6.82267 3.51495H5.82267V5.42036H6.82267H7.82267V3.51495H6.82267ZM6.82267 5.42036V4.42036H3.56014V5.42036V6.42036H6.82267V5.42036ZM3.56014 5.42036V4.42036C2.14194 4.42036 1 5.57732 1 6.98958H2H3C3 6.67093 3.25744 6.42036 3.56014 6.42036V5.42036ZM2 6.98958H1V19.2642H2H3V6.98958H2ZM2 19.2642H1C1 20.6764 2.14194 21.8334 3.56014 21.8334V20.8334V19.8334C3.25744 19.8334 3 19.5828 3 19.2642H2ZM3.56014 20.8334V21.8334H21.4387V20.8334V19.8334H3.56014V20.8334ZM21.4387 20.8334V21.8334C22.8569 21.8334 23.9988 20.6764 23.9988 19.2642H22.9988H21.9988C21.9988 19.5828 21.7414 19.8334 21.4387 19.8334V20.8334ZM22.9988 19.2642H23.9988V6.98958H22.9988H21.9988V19.2642H22.9988ZM22.9988 6.98958H23.9988C23.9988 5.57732 22.8569 4.42036 21.4387 4.42036V5.42036V6.42036C21.7414 6.42036 21.9988 6.67093 21.9988 6.98958H22.9988ZM7.67964 3.51495H8.67964C8.67964 3.79265 8.45522 4.02872 8.16307 4.02872V3.02872V2.02872C7.33661 2.02872 6.67964 2.70217 6.67964 3.51495H7.67964ZM8.16307 3.02872V4.02872H16.8959V3.02872V2.02872H8.16307V3.02872ZM16.8959 3.02872V4.02872C16.6057 4.02872 16.3793 3.7946 16.3793 3.51495H17.3793H18.3793C18.3793 2.69788 17.7181 2.02872 16.8959 2.02872V3.02872ZM17.3793 3.51495H16.3793V5.42036H17.3793H18.3793V3.51495H17.3793ZM17.3793 5.42036V4.42036H7.67964V5.42036V6.42036H17.3793V5.42036ZM7.67964 5.42036H8.67964V3.51495H7.67964H6.67964V5.42036H7.67964ZM22.143 19.2642H21.143C21.143 19.1071 21.2695 18.9714 21.4399 18.9714V19.9714V20.9714C22.385 20.9714 23.143 20.2007 23.143 19.2642H22.143ZM21.4399 19.9714V18.9714H3.56014V19.9714V20.9714H21.4399V19.9714ZM3.56014 19.9714V18.9714C3.73046 18.9714 3.85698 19.1071 3.85698 19.2642H2.85698H1.85698C1.85698 20.2007 2.61495 20.9714 3.56014 20.9714V19.9714ZM2.85698 19.2642H3.85698V6.98958H2.85698H1.85698V19.2642H2.85698ZM2.85698 6.98958H3.85698C3.85698 7.1467 3.73046 7.28233 3.56014 7.28233V6.28233V5.28233C2.61496 5.28233 1.85698 6.05309 1.85698 6.98958H2.85698ZM3.56014 6.28233V7.28233H21.4387V6.28233V5.28233H3.56014V6.28233ZM21.4387 6.28233V7.28233C21.2684 7.28233 21.1419 7.1467 21.1419 6.98958H22.1419H23.1419C23.1419 6.05309 22.3839 5.28233 21.4387 5.28233V6.28233ZM22.1419 6.98958H21.1419V19.2642H22.1419H23.1419V6.98958H22.1419ZM22.1419 19.2642V20.2642H22.143V19.2642V18.2642H22.1419V19.2642Z" fill="#B5BEC8" mask="url(#path-1-inside-1_9958_3993)"/>
<mask id="path-3-inside-2_9958_3993" fill="white">
<path d="M18.1184 8.23657C17.3146 8.23657 16.6611 8.89381 16.6611 9.70227C16.6611 10.0861 16.8092 10.4363 17.0509 10.698L15.1877 13.883C15.086 13.8609 14.9807 13.8481 14.872 13.8481C14.4753 13.8481 14.1145 14.0086 13.852 14.268L10.6334 12.1998C10.645 12.1253 10.6507 12.0497 10.6507 11.9718C10.6507 11.1633 9.99731 10.5061 9.19353 10.5061C8.38976 10.5061 7.73632 11.1633 7.73632 11.9718C7.73632 12.3382 7.87048 12.6732 8.09253 12.9303C5.46262 17.6659 5.46262 17.6891 5.46262 17.838C5.46262 18.0765 5.6546 18.2696 5.89168 18.2696C6.07441 18.2696 6.23054 18.1544 6.29184 17.9927C6.42368 17.7205 7.80456 15.2207 8.81998 13.3898C8.9391 13.4223 9.06516 13.4386 9.19469 13.4386C9.61103 13.4386 9.98806 13.2618 10.2529 12.9791L13.4437 15.0288C13.4252 15.1207 13.416 15.2172 13.416 15.3149C13.416 16.1234 14.0694 16.7806 14.8732 16.7806C15.677 16.7806 16.3304 16.1234 16.3304 15.3149C16.3304 14.9264 16.1789 14.5728 15.9325 14.3099L17.7922 11.1307C17.8975 11.1552 18.0073 11.168 18.1195 11.168C18.9233 11.168 19.5767 10.5107 19.5767 9.70227C19.5767 8.89381 18.9233 8.23657 18.1195 8.23657H18.1184ZM9.19122 12.5778C8.86046 12.5778 8.59099 12.3068 8.59099 11.9741C8.59099 11.6414 8.86046 11.3704 9.19122 11.3704C9.52198 11.3704 9.79145 11.6414 9.79145 11.9741C9.79145 12.3068 9.52198 12.5778 9.19122 12.5778ZM14.8709 15.9198C14.5401 15.9198 14.2706 15.6488 14.2706 15.3161C14.2706 15.2184 14.2949 15.1265 14.3354 15.0439C14.3366 15.0416 14.3377 15.0393 14.3389 15.0369C14.4395 14.8438 14.6396 14.7124 14.8709 14.7124C14.9657 14.7124 15.0559 14.7356 15.1357 14.7752C15.1426 14.7799 15.1484 14.7845 15.1554 14.788C15.1669 14.795 15.1773 14.7996 15.1889 14.8054C15.3578 14.9125 15.4711 15.1009 15.4711 15.3173C15.4711 15.65 15.2016 15.921 14.8709 15.921V15.9198ZM18.1184 10.3072C18.0201 10.3072 17.9275 10.2827 17.8466 10.2409C17.8396 10.2362 17.8315 10.2304 17.8246 10.2257C17.8142 10.2187 17.8026 10.2141 17.7911 10.2083C17.6268 10.1001 17.5181 9.91398 17.5181 9.70343C17.5181 9.37074 17.7876 9.0997 18.1184 9.0997C18.4491 9.0997 18.7186 9.37074 18.7186 9.70343C18.7186 10.0361 18.4491 10.3072 18.1184 10.3072Z"/>
</mask>
<path d="M17.0509 10.698L17.9141 11.2029L18.288 10.5637L17.7855 10.0196L17.0509 10.698ZM15.1877 13.883L14.9755 14.8602L15.6846 15.0142L16.0509 14.3879L15.1877 13.883ZM13.852 14.268L13.3114 15.1093L13.9851 15.5423L14.5548 14.9793L13.852 14.268ZM10.6334 12.1998L9.64525 12.0463L9.54536 12.6893L10.0928 13.041L10.6334 12.1998ZM8.09253 12.9303L8.96676 13.4158L9.30586 12.8052L8.84931 12.2766L8.09253 12.9303ZM6.29184 17.9927L5.39185 17.5568L5.3725 17.5968L5.35677 17.6383L6.29184 17.9927ZM8.81998 13.3898L9.08372 12.4252L8.32629 12.2181L7.94546 12.9048L8.81998 13.3898ZM10.2529 12.9791L10.7934 12.1378L10.0926 11.6876L9.52316 12.2954L10.2529 12.9791ZM13.4437 15.0288L14.424 15.2262L14.5589 14.5566L13.9842 14.1874L13.4437 15.0288ZM15.9325 14.3099L15.0694 13.805L14.6926 14.4491L15.2028 14.9937L15.9325 14.3099ZM17.7922 11.1307L18.0183 10.1566L17.3009 9.99011L16.9291 10.6258L17.7922 11.1307ZM14.8709 15.9198H15.8709V14.9198H14.8709V15.9198ZM14.3354 15.0439L13.4399 14.5988L13.4374 14.6038L14.3354 15.0439ZM14.3389 15.0369L13.452 14.5748L13.4476 14.5833L13.4434 14.5918L14.3389 15.0369ZM15.1357 14.7752L15.6926 13.9446L15.6383 13.9082L15.5798 13.8792L15.1357 14.7752ZM15.1554 14.788L15.6721 13.9318L15.6391 13.9119L15.6047 13.8946L15.1554 14.788ZM15.1889 14.8054L15.7242 13.9608L15.6824 13.9343L15.6382 13.9121L15.1889 14.8054ZM14.8709 15.921H13.8709V16.921H14.8709V15.921ZM17.8466 10.2409L17.2896 11.0714L17.3368 11.103L17.3871 11.1291L17.8466 10.2409ZM17.8246 10.2257L18.3815 9.39517L17.8246 10.2257ZM17.7911 10.2083L17.241 11.0434L17.2897 11.0755L17.3418 11.1017L17.7911 10.2083ZM18.1184 8.23657V7.23657C16.7568 7.23657 15.6611 8.34701 15.6611 9.70227H16.6611H17.6611C17.6611 9.44061 17.8723 9.23657 18.1184 9.23657V8.23657ZM16.6611 9.70227H15.6611C15.6611 10.348 15.9111 10.9378 16.3162 11.3765L17.0509 10.698L17.7855 10.0196C17.7073 9.9348 17.6611 9.8243 17.6611 9.70227H16.6611ZM17.0509 10.698L16.1877 10.1931L14.3246 13.3781L15.1877 13.883L16.0509 14.3879L17.9141 11.2029L17.0509 10.698ZM15.1877 13.883L15.4 12.9058C15.2364 12.8702 15.0598 12.8481 14.872 12.8481V13.8481V14.8481C14.9017 14.8481 14.9355 14.8515 14.9755 14.8602L15.1877 13.883ZM14.872 13.8481V12.8481C14.2005 12.8481 13.5903 13.1208 13.1491 13.5567L13.852 14.268L14.5548 14.9793C14.6387 14.8965 14.7502 14.8481 14.872 14.8481V13.8481ZM13.852 14.268L14.3926 13.4267L11.174 11.3585L10.6334 12.1998L10.0928 13.041L13.3114 15.1093L13.852 14.268ZM10.6334 12.1998L11.6215 12.3533C11.6412 12.2267 11.6507 12.0997 11.6507 11.9718H10.6507H9.65074C9.65074 11.9997 9.64871 12.0239 9.64525 12.0463L10.6334 12.1998ZM10.6507 11.9718H11.6507C11.6507 10.6165 10.5551 9.50607 9.19353 9.50607V10.5061V11.5061C9.43956 11.5061 9.65074 11.7101 9.65074 11.9718H10.6507ZM9.19353 10.5061V9.50607C7.832 9.50607 6.73632 10.6165 6.73632 11.9718H7.73632H8.73632C8.73632 11.7101 8.94751 11.5061 9.19353 11.5061V10.5061ZM7.73632 11.9718H6.73632C6.73632 12.5869 6.96256 13.1519 7.33575 13.584L8.09253 12.9303L8.84931 12.2766C8.7784 12.1945 8.73632 12.0895 8.73632 11.9718H7.73632ZM8.09253 12.9303L7.2183 12.4448C5.90545 14.8088 5.24277 16.0078 4.90901 16.6336C4.74689 16.9375 4.64388 17.1402 4.58276 17.2846C4.55077 17.3602 4.51363 17.4578 4.48966 17.5705C4.46138 17.7034 4.46262 17.8085 4.46262 17.838H5.46262H6.46262C6.46262 17.8303 6.46386 17.9022 6.44585 17.9868C6.43215 18.0512 6.41556 18.0855 6.42466 18.064C6.44572 18.0142 6.50708 17.8872 6.67371 17.5748C6.99742 16.9678 7.6497 15.7874 8.96676 13.4158L8.09253 12.9303ZM5.46262 17.838H4.46262C4.46262 18.6233 5.09685 19.2696 5.89168 19.2696V18.2696V17.2696C6.21235 17.2696 6.46262 17.5297 6.46262 17.838H5.46262ZM5.89168 18.2696V19.2696C6.50547 19.2696 7.02389 18.8827 7.2269 18.3472L6.29184 17.9927L5.35677 17.6383C5.43719 17.4261 5.64335 17.2696 5.89168 17.2696V18.2696ZM6.29184 17.9927L7.19182 18.4287C7.19167 18.429 7.19214 18.428 7.19343 18.4254C7.19467 18.4229 7.1964 18.4195 7.19869 18.415C7.20331 18.406 7.20942 18.3941 7.2172 18.3792C7.2328 18.3494 7.25327 18.3107 7.27864 18.2632C7.32932 18.1684 7.39671 18.0437 7.47814 17.894C7.64084 17.5949 7.85662 17.2014 8.10065 16.7579C8.58855 15.8714 9.18705 14.7898 9.6945 13.8748L8.81998 13.3898L7.94546 12.9048C6.94385 14.7108 5.53966 17.2517 5.39185 17.5568L6.29184 17.9927ZM8.81998 13.3898L8.55623 14.3544C8.76653 14.4119 8.98165 14.4386 9.19469 14.4386V13.4386V12.4386C9.14867 12.4386 9.11167 12.4328 9.08372 12.4252L8.81998 13.3898ZM9.19469 13.4386V14.4386C9.89953 14.4386 10.5371 14.1384 10.9826 13.6629L10.2529 12.9791L9.52316 12.2954C9.43902 12.3852 9.32253 12.4386 9.19469 12.4386V13.4386ZM10.2529 12.9791L9.71244 13.8205L12.9033 15.8702L13.4437 15.0288L13.9842 14.1874L10.7934 12.1378L10.2529 12.9791ZM13.4437 15.0288L12.4634 14.8314C12.431 14.9921 12.416 15.155 12.416 15.3149H13.416H14.416C14.416 15.2795 14.4194 15.2493 14.424 15.2262L13.4437 15.0288ZM13.416 15.3149H12.416C12.416 16.6702 13.5116 17.7806 14.8732 17.7806V16.7806V15.7806C14.6271 15.7806 14.416 15.5766 14.416 15.3149H13.416ZM14.8732 16.7806V17.7806C16.2347 17.7806 17.3304 16.6702 17.3304 15.3149H16.3304H15.3304C15.3304 15.5766 15.1192 15.7806 14.8732 15.7806V16.7806ZM16.3304 15.3149H17.3304C17.3304 14.6614 17.0745 14.0661 16.6623 13.6261L15.9325 14.3099L15.2028 14.9937C15.2832 15.0794 15.3304 15.1914 15.3304 15.3149H16.3304ZM15.9325 14.3099L16.7957 14.8148L18.6554 11.6357L17.7922 11.1307L16.9291 10.6258L15.0694 13.805L15.9325 14.3099ZM17.7922 11.1307L17.5661 12.1048C17.7456 12.1465 17.9314 12.168 18.1195 12.168V11.168V10.168C18.0833 10.168 18.0493 10.1638 18.0183 10.1566L17.7922 11.1307ZM18.1195 11.168V12.168C19.481 12.168 20.5767 11.0575 20.5767 9.70227H19.5767H18.5767C18.5767 9.96392 18.3655 10.168 18.1195 10.168V11.168ZM19.5767 9.70227H20.5767C20.5767 8.34701 19.481 7.23657 18.1195 7.23657V8.23657V9.23657C18.3655 9.23657 18.5767 9.44061 18.5767 9.70227H19.5767ZM18.1195 8.23657V7.23657H18.1184V8.23657V9.23657H18.1195V8.23657ZM9.19122 12.5778V11.5778C9.41821 11.5778 9.59099 11.76 9.59099 11.9741H8.59099H7.59099C7.59099 12.8536 8.3027 13.5778 9.19122 13.5778V12.5778ZM8.59099 11.9741H9.59099C9.59099 12.1882 9.41821 12.3704 9.19122 12.3704V11.3704V10.3704C8.30271 10.3704 7.59099 11.0946 7.59099 11.9741H8.59099ZM9.19122 11.3704V12.3704C8.96423 12.3704 8.79145 12.1882 8.79145 11.9741H9.79145H10.7915C10.7915 11.0946 10.0797 10.3704 9.19122 10.3704V11.3704ZM9.79145 11.9741H8.79145C8.79145 11.76 8.96423 11.5778 9.19122 11.5778V12.5778V13.5778C10.0797 13.5778 10.7915 12.8536 10.7915 11.9741H9.79145ZM14.8709 15.9198V14.9198C15.0979 14.9198 15.2706 15.102 15.2706 15.3161H14.2706H13.2706C13.2706 16.1956 13.9823 16.9198 14.8709 16.9198V15.9198ZM14.2706 15.3161H15.2706C15.2706 15.387 15.2526 15.4448 15.2334 15.484L14.3354 15.0439L13.4374 14.6038C13.3373 14.8082 13.2706 15.0498 13.2706 15.3161H14.2706ZM14.3354 15.0439L15.2309 15.489C15.2319 15.487 15.2316 15.4876 15.2326 15.4856C15.2342 15.4824 15.2327 15.4853 15.2343 15.4821L14.3389 15.0369L13.4434 14.5918C13.4419 14.5948 13.4432 14.5922 13.4417 14.5953C13.4406 14.5975 13.441 14.5966 13.4399 14.5988L14.3354 15.0439ZM14.3389 15.0369L15.2257 15.499C15.1627 15.6199 15.0306 15.7124 14.8709 15.7124V14.7124V13.7124C14.2485 13.7124 13.7163 14.0677 13.452 14.5748L14.3389 15.0369ZM14.8709 14.7124V15.7124C14.8012 15.7124 14.7402 15.6952 14.6916 15.6712L15.1357 14.7752L15.5798 13.8792C15.3717 13.7761 15.1302 13.7124 14.8709 13.7124V14.7124ZM15.1357 14.7752L14.5788 15.6058C14.5744 15.6028 14.5708 15.6004 14.5685 15.5988C14.5674 15.598 14.5665 15.5974 14.5659 15.597C14.5656 15.5967 14.5654 15.5966 14.5652 15.5965C14.5652 15.5964 14.5651 15.5964 14.5651 15.5964C14.5651 15.5964 14.565 15.5963 14.565 15.5963C14.565 15.5963 14.565 15.5963 14.565 15.5963C14.563 15.5949 14.5718 15.6011 14.58 15.6067C14.5984 15.6194 14.6441 15.6502 14.7061 15.6814L15.1554 14.788L15.6047 13.8946C15.6597 13.9223 15.699 13.949 15.7111 13.9573C15.7161 13.9608 15.7217 13.9647 15.7164 13.961C15.7138 13.9592 15.7044 13.9525 15.6926 13.9446L15.1357 14.7752ZM15.1554 14.788L14.6387 15.6442C14.6744 15.6657 14.7045 15.6813 14.7228 15.6905C14.7311 15.6947 14.7386 15.6984 14.7405 15.6993C14.7438 15.7009 14.7421 15.7001 14.7396 15.6988L15.1889 14.8054L15.6382 13.9121C15.6299 13.9079 15.6226 13.9043 15.6203 13.9032C15.6166 13.9014 15.6187 13.9024 15.6214 13.9038C15.6287 13.9075 15.6479 13.9173 15.6721 13.9318L15.1554 14.788ZM15.1889 14.8054L14.6536 15.6501C14.5476 15.5829 14.4711 15.4603 14.4711 15.3173H15.4711H16.4711C16.4711 14.7415 16.1679 14.242 15.7242 13.9608L15.1889 14.8054ZM15.4711 15.3173H14.4711C14.4711 15.1032 14.6439 14.921 14.8709 14.921V15.921V16.921C15.7594 16.921 16.4711 16.1968 16.4711 15.3173H15.4711ZM14.8709 15.921H15.8709V15.9198H14.8709H13.8709V15.921H14.8709ZM18.1184 10.3072V9.30716C18.1873 9.30716 18.2516 9.32451 18.306 9.35265L17.8466 10.2409L17.3871 11.1291C17.6034 11.2409 17.8528 11.3072 18.1184 11.3072V10.3072ZM17.8466 10.2409L18.4035 9.41029C18.4069 9.41254 18.4091 9.41406 18.4093 9.41421C18.4094 9.4143 18.4092 9.41418 18.407 9.41266C18.4055 9.41156 18.4019 9.40907 18.3981 9.40643C18.3942 9.40373 18.3884 9.39974 18.3815 9.39517L17.8246 10.2257L17.2677 11.0563C17.2643 11.054 17.2621 11.0525 17.2619 11.0524C17.2618 11.0523 17.2619 11.0524 17.2641 11.0539C17.2657 11.055 17.2693 11.0575 17.2731 11.0601C17.277 11.0628 17.2828 11.0668 17.2896 11.0714L17.8466 10.2409ZM17.8246 10.2257L18.3815 9.39517C18.3215 9.35492 18.2697 9.32908 18.2483 9.31858C18.2424 9.31569 18.2374 9.31331 18.2342 9.3118C18.2326 9.31103 18.2312 9.31036 18.2303 9.30992C18.2289 9.30927 18.2291 9.30933 18.2284 9.309C18.2262 9.30798 18.2322 9.3108 18.2404 9.3149L17.7911 10.2083L17.3418 11.1017C17.3557 11.1087 17.3675 11.1143 17.3711 11.116C17.3776 11.1191 17.3727 11.1167 17.3682 11.1146C17.3581 11.1096 17.3173 11.0896 17.2677 11.0563L17.8246 10.2257ZM17.7911 10.2083L18.3412 9.37319C18.4444 9.44119 18.5181 9.56194 18.5181 9.70343H17.5181H16.5181C16.5181 10.266 16.8093 10.759 17.241 11.0434L17.7911 10.2083ZM17.5181 9.70343H18.5181C18.5181 9.91754 18.3453 10.0997 18.1184 10.0997V9.0997V8.0997C17.2298 8.0997 16.5181 8.82394 16.5181 9.70343H17.5181ZM18.1184 9.0997V10.0997C17.8914 10.0997 17.7186 9.91754 17.7186 9.70343H18.7186H19.7186C19.7186 8.82394 19.0069 8.0997 18.1184 8.0997V9.0997ZM18.7186 9.70343H17.7186C17.7186 9.48932 17.8914 9.30716 18.1184 9.30716V10.3072V11.3072C19.0069 11.3072 19.7186 10.5829 19.7186 9.70343H18.7186Z" fill="#B5BEC8" mask="url(#path-3-inside-2_9958_3993)"/>
</g>
<defs>
<clipPath id="clip0_9958_3993">
<rect width="21" height="18.6667" fill="white" transform="translate(2 2.16675)"/>
</clipPath>
</defs>
</svg>
